G75*
%MOIN*%
%OFA0B0*%
%FSLAX25Y25*%
%IPPOS*%
%LPD*%
%AMOC8*
5,1,8,0,0,1.08239X$1,22.5*
%
%ADD10R,0.13386X0.30709*%
%ADD11R,0.13386X0.25197*%
%ADD12C,0.13398*%
%ADD13R,0.04737X0.05131*%
%ADD14R,0.05131X0.04737*%
%ADD15R,0.16154X0.07099*%
%ADD16R,0.08674X0.04737*%
%ADD17R,0.10249X0.07887*%
%ADD18R,0.07099X0.03950*%
%ADD19R,0.05524X0.08674*%
%ADD20R,0.08674X0.05524*%
%ADD21C,0.06000*%
%ADD22R,0.08400X0.21800*%
%ADD23OC8,0.06000*%
%ADD24OC8,0.07850*%
%ADD25C,0.06800*%
%ADD26R,0.06706X0.05918*%
%ADD27R,0.02178X0.06706*%
%ADD28C,0.10800*%
%ADD29C,0.08600*%
%ADD30R,0.06902X0.03162*%
%ADD31R,0.13398X0.07887*%
%ADD32C,0.08674*%
%ADD33OC8,0.13200*%
%ADD34OC8,0.09300*%
%ADD35C,0.05800*%
D10*
X0013461Y0117594D03*
D11*
X0013461Y0060508D03*
D12*
X0040626Y0034524D03*
X0139051Y0034524D03*
X0249287Y0235311D03*
X0013067Y0235311D03*
D13*
X0028608Y0169356D03*
X0028608Y0162663D03*
X0036906Y0160163D03*
X0036906Y0166856D03*
X0036167Y0142516D03*
X0029474Y0142516D03*
X0034593Y0128746D03*
X0034593Y0122053D03*
X0034612Y0116374D03*
X0034612Y0109681D03*
X0035813Y0093746D03*
X0035813Y0087053D03*
X0037959Y0073510D03*
X0031266Y0073510D03*
X0107230Y0155459D03*
X0113923Y0155459D03*
X0149740Y0135469D03*
X0149740Y0128776D03*
X0239179Y0126157D03*
X0239179Y0132850D03*
X0181837Y0042870D03*
X0175144Y0042870D03*
D14*
X0189711Y0041305D03*
X0189711Y0034612D03*
X0197211Y0034612D03*
X0197211Y0041305D03*
X0154770Y0043392D03*
X0154770Y0050085D03*
X0212240Y0126157D03*
X0212240Y0132850D03*
X0229652Y0133096D03*
X0229652Y0126404D03*
X0117093Y0140705D03*
X0110400Y0140705D03*
X0100144Y0153392D03*
X0100144Y0160085D03*
X0072152Y0150400D03*
X0065459Y0150400D03*
X0051423Y0150026D03*
X0051423Y0156719D03*
X0043136Y0155144D03*
X0036531Y0150419D03*
X0029839Y0150419D03*
X0043136Y0148451D03*
X0044386Y0100469D03*
X0051886Y0100469D03*
X0051886Y0093776D03*
X0051531Y0087053D03*
X0044839Y0087053D03*
X0044386Y0093776D03*
X0044740Y0079140D03*
X0051433Y0079140D03*
X0028352Y0093589D03*
X0028352Y0100281D03*
D15*
X0054711Y0188825D03*
X0088175Y0188825D03*
D16*
X0165232Y0131079D03*
X0176453Y0131079D03*
D17*
X0104455Y0183766D03*
X0104455Y0199711D03*
X0039002Y0192368D03*
X0039002Y0176423D03*
D18*
X0060528Y0158825D03*
X0073913Y0158825D03*
D19*
X0173835Y0116591D03*
X0181709Y0116591D03*
X0189583Y0116591D03*
X0197457Y0116591D03*
X0205331Y0116591D03*
X0213205Y0116591D03*
X0221079Y0116591D03*
X0228953Y0116591D03*
X0228953Y0052811D03*
X0221079Y0052811D03*
X0213205Y0052811D03*
X0205331Y0052811D03*
X0197457Y0052811D03*
X0189583Y0052811D03*
X0181709Y0052811D03*
X0173835Y0052811D03*
D20*
X0165961Y0065409D03*
X0165961Y0073283D03*
X0165961Y0081157D03*
X0165961Y0089031D03*
X0165961Y0096906D03*
X0165961Y0104780D03*
D21*
X0147617Y0074061D02*
X0142417Y0074061D01*
X0142417Y0064061D02*
X0147617Y0064061D01*
X0147617Y0054061D02*
X0142417Y0054061D01*
X0112417Y0054061D02*
X0107217Y0054061D01*
X0107217Y0064061D02*
X0112417Y0064061D01*
X0112417Y0074061D02*
X0107217Y0074061D01*
D22*
X0092230Y0095474D03*
X0092230Y0133474D03*
D23*
X0093707Y0173333D03*
X0113707Y0173333D03*
X0116118Y0194661D03*
X0116118Y0234661D03*
X0065163Y0230577D03*
X0037683Y0216167D03*
X0035163Y0230577D03*
X0007683Y0216167D03*
X0006856Y0199927D03*
X0006856Y0169927D03*
D24*
X0013687Y0126384D03*
X0013687Y0056384D03*
D25*
X0056285Y0060683D02*
X0056285Y0066683D01*
X0086285Y0054683D02*
X0086285Y0048683D01*
D26*
X0091807Y0149996D03*
X0091807Y0157476D03*
X0020311Y0162732D03*
X0020311Y0170213D03*
D27*
X0042663Y0141541D03*
X0045222Y0141541D03*
X0047781Y0141541D03*
X0050341Y0141541D03*
X0052900Y0141541D03*
X0055459Y0141541D03*
X0058018Y0141541D03*
X0060577Y0141541D03*
X0063136Y0141541D03*
X0065695Y0141541D03*
X0068254Y0141541D03*
X0070813Y0141541D03*
X0070813Y0112112D03*
X0068254Y0112112D03*
X0065695Y0112112D03*
X0063136Y0112112D03*
X0060577Y0112112D03*
X0058018Y0112112D03*
X0055459Y0112112D03*
X0052900Y0112112D03*
X0050341Y0112112D03*
X0047781Y0112112D03*
X0045222Y0112112D03*
X0042663Y0112112D03*
D28*
X0136886Y0154720D03*
X0136886Y0214720D03*
X0246886Y0214720D03*
X0246886Y0184720D03*
D29*
X0185232Y0232130D02*
X0185232Y0239930D01*
X0156699Y0239930D02*
X0156699Y0232130D01*
X0106384Y0231716D02*
X0106384Y0239516D01*
X0106679Y0038433D02*
X0106679Y0030633D01*
X0082004Y0030633D02*
X0082004Y0038433D01*
X0072122Y0038433D02*
X0072122Y0030633D01*
D30*
X0117585Y0091797D03*
X0117585Y0096797D03*
X0117585Y0101797D03*
X0117585Y0106797D03*
X0117585Y0111797D03*
X0117585Y0116797D03*
X0117585Y0121797D03*
X0117585Y0126797D03*
X0138835Y0126797D03*
X0138835Y0121797D03*
X0138835Y0116797D03*
X0138835Y0111797D03*
X0138835Y0106797D03*
X0138835Y0101797D03*
X0138835Y0096797D03*
X0138835Y0091797D03*
D31*
X0013677Y0098598D03*
X0013677Y0076551D03*
D32*
X0205478Y0034809D03*
X0215478Y0034809D03*
X0225478Y0034809D03*
X0235478Y0034809D03*
X0245478Y0034809D03*
X0255478Y0034809D03*
D33*
X0013067Y0045547D03*
X0013067Y0137673D03*
D34*
X0062280Y0239248D03*
X0072122Y0239248D03*
D35*
X0047319Y0179012D03*
X0057240Y0165872D03*
X0058073Y0148520D03*
X0082309Y0154888D03*
X0106758Y0162447D03*
X0108333Y0148274D03*
X0113067Y0133736D03*
X0108136Y0127309D03*
X0109711Y0119533D03*
X0109711Y0104533D03*
X0109461Y0094371D03*
X0117004Y0086492D03*
X0140961Y0085783D03*
X0155961Y0100783D03*
X0157211Y0115783D03*
X0152211Y0120783D03*
X0164711Y0118283D03*
X0157211Y0135783D03*
X0139711Y0133283D03*
X0178461Y0098283D03*
X0187211Y0124533D03*
X0197211Y0133283D03*
X0203461Y0125783D03*
X0188461Y0139533D03*
X0247929Y0133283D03*
X0195961Y0065783D03*
X0214711Y0043283D03*
X0245961Y0048283D03*
X0254711Y0044533D03*
X0182211Y0033283D03*
X0168461Y0035783D03*
X0168461Y0043283D03*
X0069386Y0099622D03*
X0060301Y0099455D03*
X0036295Y0080587D03*
X0028943Y0110016D03*
X0033530Y0134888D03*
X0030380Y0156148D03*
M02*
