%
M48
M72
T01C0.02362
T02C0.03200
T03C0.04000
T04C0.04700
T05C0.04724
T06C0.05200
T07C0.07900
T08C0.12598
%
T01
X36295Y80587
X60301Y99455
X69386Y99622
X109461Y94371
X117004Y86492
X109711Y104533
X109711Y119533
X108136Y127309
X113067Y133736
X108333Y148274
X106758Y162447
X82309Y154888
X58073Y148520
X57240Y165872
X47319Y179012
X30380Y156148
X33530Y134888
X28943Y110016
X139711Y133283
X152211Y120783
X157211Y115783
X164711Y118283
X157211Y135783
X187211Y124533
X197211Y133283
X203461Y125783
X188461Y139533
X155961Y100783
X140961Y85783
X178461Y98283
X195961Y65783
X214711Y43283
X245961Y48283
X254711Y44533
X182211Y33283
X168461Y35783
X168461Y43283
X247929Y133283
T02
X142417Y74061
X142417Y64061
X142417Y54061
X112417Y54061
X112417Y64061
X112417Y74061
X6856Y169927
X6856Y199927
X7683Y216167
X35163Y230577
X37683Y216167
X65163Y230577
X116118Y234661
X116118Y194661
X113707Y173333
X93707Y173333
T03
X56285Y63683
X86285Y51683
T04
X13687Y56384
X13687Y126384
T05
X136886Y154720
X136886Y214720
X246886Y214720
X246886Y184720
T06
X185232Y236030
X156699Y236030
X106384Y235616
X72122Y239248
X62280Y239248
X72122Y34533
X82004Y34533
X106679Y34533
T07
X13067Y45547
X13067Y137673
T08
X40626Y34524
X139051Y34524
X249287Y235311
X13067Y235311
M30
