G75*
%MOIN*%
%OFA0B0*%
%FSLAX25Y25*%
%IPPOS*%
%LPD*%
%AMOC8*
5,1,8,0,0,1.08239X$1,22.5*
%
%ADD10C,0.13398*%
%ADD11C,0.06000*%
%ADD12OC8,0.06000*%
%ADD13OC8,0.07850*%
%ADD14C,0.06800*%
%ADD15C,0.10800*%
%ADD16C,0.08600*%
%ADD17OC8,0.13200*%
%ADD18OC8,0.09300*%
%ADD19C,0.05800*%
D10*
X0040626Y0034524D03*
X0139051Y0034524D03*
X0249287Y0235311D03*
X0013067Y0235311D03*
D11*
X0107217Y0074061D02*
X0112417Y0074061D01*
X0112417Y0064061D02*
X0107217Y0064061D01*
X0107217Y0054061D02*
X0112417Y0054061D01*
X0142417Y0054061D02*
X0147617Y0054061D01*
X0147617Y0064061D02*
X0142417Y0064061D01*
X0142417Y0074061D02*
X0147617Y0074061D01*
D12*
X0113707Y0173333D03*
X0093707Y0173333D03*
X0116118Y0194661D03*
X0116118Y0234661D03*
X0065163Y0230577D03*
X0037683Y0216167D03*
X0035163Y0230577D03*
X0007683Y0216167D03*
X0006856Y0199927D03*
X0006856Y0169927D03*
D13*
X0013687Y0126384D03*
X0013687Y0056384D03*
D14*
X0056285Y0060683D02*
X0056285Y0066683D01*
X0086285Y0054683D02*
X0086285Y0048683D01*
D15*
X0136886Y0154720D03*
X0136886Y0214720D03*
X0246886Y0214720D03*
X0246886Y0184720D03*
D16*
X0185232Y0232130D02*
X0185232Y0239930D01*
X0156699Y0239930D02*
X0156699Y0232130D01*
X0106384Y0231716D02*
X0106384Y0239516D01*
X0106679Y0038433D02*
X0106679Y0030633D01*
X0082004Y0030633D02*
X0082004Y0038433D01*
X0072122Y0038433D02*
X0072122Y0030633D01*
D17*
X0013067Y0045547D03*
X0013067Y0137673D03*
D18*
X0062280Y0239248D03*
X0072122Y0239248D03*
D19*
X0047319Y0179012D03*
X0057240Y0165872D03*
X0058073Y0148520D03*
X0082309Y0154888D03*
X0106758Y0162447D03*
X0108333Y0148274D03*
X0113067Y0133736D03*
X0108136Y0127309D03*
X0109711Y0119533D03*
X0109711Y0104533D03*
X0109461Y0094371D03*
X0117004Y0086492D03*
X0140961Y0085783D03*
X0155961Y0100783D03*
X0157211Y0115783D03*
X0152211Y0120783D03*
X0164711Y0118283D03*
X0157211Y0135783D03*
X0139711Y0133283D03*
X0178461Y0098283D03*
X0187211Y0124533D03*
X0197211Y0133283D03*
X0203461Y0125783D03*
X0188461Y0139533D03*
X0247929Y0133283D03*
X0195961Y0065783D03*
X0214711Y0043283D03*
X0245961Y0048283D03*
X0254711Y0044533D03*
X0182211Y0033283D03*
X0168461Y0035783D03*
X0168461Y0043283D03*
X0069386Y0099622D03*
X0060301Y0099455D03*
X0036295Y0080587D03*
X0028943Y0110016D03*
X0033530Y0134888D03*
X0030380Y0156148D03*
M02*
