G75*
%MOIN*%
%OFA0B0*%
%FSLAX25Y25*%
%IPPOS*%
%LPD*%
%AMOC8*
5,1,8,0,0,1.08239X$1,22.5*
%
%ADD10R,0.05906X0.05118*%
%ADD11R,0.05118X0.05906*%
%ADD12R,0.15354X0.06299*%
%ADD13R,0.09449X0.07087*%
%ADD14R,0.07087X0.09449*%
%ADD15R,0.06299X0.03150*%
%ADD16R,0.04724X0.07874*%
%ADD17R,0.07874X0.04724*%
%ADD18R,0.07600X0.21000*%
%ADD19R,0.01378X0.05906*%
%ADD20R,0.07480X0.02500*%
D10*
X0162772Y0164780D03*
X0162772Y0172260D03*
X0164072Y0181157D03*
X0164072Y0188638D03*
X0164052Y0197280D03*
X0164052Y0204760D03*
X0153855Y0215665D03*
X0153855Y0223146D03*
X0165115Y0227240D03*
X0165115Y0234720D03*
X0153068Y0239602D03*
X0153068Y0247083D03*
X0138796Y0247083D03*
X0138796Y0239602D03*
X0138619Y0223264D03*
X0138619Y0215783D03*
X0148737Y0178795D03*
X0148737Y0171315D03*
X0217516Y0233815D03*
X0217516Y0241295D03*
X0236690Y0249878D03*
X0236690Y0257358D03*
X0246138Y0249445D03*
X0246138Y0241965D03*
X0241355Y0229110D03*
X0241355Y0221630D03*
X0296375Y0222752D03*
X0296375Y0230232D03*
X0361375Y0215921D03*
X0361375Y0208441D03*
X0375095Y0208441D03*
X0375095Y0215921D03*
X0387536Y0210980D03*
X0387536Y0203500D03*
X0296375Y0156571D03*
X0296375Y0149091D03*
X0296375Y0109012D03*
X0296375Y0101531D03*
X0335095Y0103677D03*
X0335095Y0111157D03*
X0350095Y0111157D03*
X0350095Y0103677D03*
X0240568Y0103205D03*
X0240568Y0110685D03*
X0240666Y0148992D03*
X0240666Y0156472D03*
D11*
X0157831Y0149130D03*
X0165312Y0149130D03*
X0172556Y0162260D03*
X0180036Y0162260D03*
X0180135Y0172673D03*
X0172654Y0172673D03*
X0196886Y0227594D03*
X0204367Y0227594D03*
X0320135Y0123579D03*
X0327615Y0123579D03*
X0311631Y0066551D03*
X0304150Y0066551D03*
D12*
X0318481Y0231197D03*
X0351946Y0231197D03*
X0195587Y0266020D03*
X0162123Y0266020D03*
D13*
X0219091Y0264898D03*
X0219091Y0280843D03*
D14*
X0173205Y0295232D03*
X0157260Y0295232D03*
D15*
X0190823Y0242319D03*
X0204209Y0242319D03*
D16*
X0322969Y0197299D03*
X0330843Y0197299D03*
X0338717Y0197299D03*
X0346591Y0197299D03*
X0354465Y0197299D03*
X0362339Y0197299D03*
X0370213Y0197299D03*
X0378087Y0197299D03*
X0378087Y0133520D03*
X0370213Y0133520D03*
X0362339Y0133520D03*
X0354465Y0133520D03*
X0346591Y0133520D03*
X0338717Y0133520D03*
X0330843Y0133520D03*
X0322969Y0133520D03*
D17*
X0315095Y0146118D03*
X0315095Y0153992D03*
X0315095Y0161866D03*
X0315095Y0169740D03*
X0315095Y0177614D03*
X0315095Y0185488D03*
D18*
X0221690Y0171094D03*
X0221690Y0209094D03*
D19*
X0200272Y0217161D03*
X0197713Y0217161D03*
X0195154Y0217161D03*
X0192595Y0217161D03*
X0190036Y0217161D03*
X0187477Y0217161D03*
X0184918Y0217161D03*
X0182359Y0217161D03*
X0179800Y0217161D03*
X0177241Y0217161D03*
X0174682Y0217161D03*
X0172123Y0217161D03*
X0172123Y0187732D03*
X0174682Y0187732D03*
X0177241Y0187732D03*
X0179800Y0187732D03*
X0182359Y0187732D03*
X0184918Y0187732D03*
X0187477Y0187732D03*
X0190036Y0187732D03*
X0192595Y0187732D03*
X0195154Y0187732D03*
X0197713Y0187732D03*
X0200272Y0187732D03*
D20*
X0250272Y0183992D03*
X0250272Y0178992D03*
X0250272Y0173992D03*
X0250272Y0168992D03*
X0250272Y0163992D03*
X0250272Y0158992D03*
X0250272Y0153992D03*
X0250272Y0148992D03*
X0250272Y0137772D03*
X0250272Y0132772D03*
X0250272Y0127772D03*
X0250272Y0122772D03*
X0250272Y0117772D03*
X0250272Y0112772D03*
X0250272Y0107772D03*
X0250272Y0102772D03*
X0287772Y0102772D03*
X0287772Y0107772D03*
X0287772Y0112772D03*
X0287772Y0117772D03*
X0287772Y0122772D03*
X0287772Y0127772D03*
X0287772Y0132772D03*
X0287772Y0137772D03*
X0287772Y0148992D03*
X0287772Y0153992D03*
X0287772Y0158992D03*
X0287772Y0163992D03*
X0287772Y0168992D03*
X0287772Y0173992D03*
X0287772Y0178992D03*
X0287772Y0183992D03*
X0287772Y0195213D03*
X0287772Y0200213D03*
X0287772Y0205213D03*
X0287772Y0210213D03*
X0287772Y0215213D03*
X0287772Y0220213D03*
X0287772Y0225213D03*
X0287772Y0230213D03*
X0250272Y0230213D03*
X0250272Y0225213D03*
X0250272Y0220213D03*
X0250272Y0215213D03*
X0250272Y0210213D03*
X0250272Y0205213D03*
X0250272Y0200213D03*
X0250272Y0195213D03*
M02*
