%
M48
M72
T01C0.03150
T02C0.03200
T03C0.04000
T04C0.04724
T05C0.05512
T06C0.07900
T07C0.11500
T08C0.12598
%
T01
X155902Y160114
X189760Y175075
X196195Y171492
X203622Y153154
X229918Y153028
X239846Y164292
X206207Y191630
X206431Y204567
X187532Y224140
X177949Y236492
X158264Y230980
X138619Y231639
X153540Y256177
X162989Y212083
X155115Y192398
X233068Y223894
X239367Y215232
X239058Y207830
X240942Y236492
X296060Y236492
X311808Y260114
X319682Y206669
X338579Y204996
X368501Y227043
X303934Y182949
X306886Y174681
X301768Y168283
X296847Y141217
X310725Y126059
X303146Y114445
X318894Y113657
X296847Y92398
X354327Y121531
X387398Y111295
T02
X391375Y87654
X401375Y87654
X381375Y87654
X371375Y87654
X361375Y87654
X351375Y87654
X284052Y86551
X284052Y76551
X284052Y66551
X254052Y66551
X254052Y76551
X254052Y86551
X225666Y254012
X205666Y254012
X222083Y295350
X182083Y295350
X138304Y283106
X131099Y283224
X111099Y283224
X102438Y282988
X82438Y282988
X138304Y263106
T03
X137083Y201768
X137083Y141768
X176808Y127354
X206808Y115354
X208296Y328382
X119296Y328382
T04
X261670Y307555
X261670Y277555
X371670Y277555
X371670Y337555
T05
X206690Y95626
X206690Y66098
X147635Y66098
X127949Y66098
X108264Y66098
X108264Y95626
X127949Y95626
X147635Y95626
T06
X392516Y283441
X392516Y307752
T07
X106217Y239524
X68402Y238972
X77949Y164661
X78068Y126079
T08
X71650Y67988
X71650Y335705
X396434Y335803
X396453Y67988
M30
