G75*
%MOIN*%
%OFA0B0*%
%FSLAX25Y25*%
%IPPOS*%
%LPD*%
%AMOC8*
5,1,8,0,0,1.08239X$1,22.5*
%
%ADD10OC8,0.06000*%
%ADD11C,0.20000*%
%ADD12C,0.05200*%
%ADD13OC8,0.05200*%
%ADD14C,0.06000*%
%ADD15C,0.10000*%
%ADD16C,0.08600*%
%ADD17C,0.08600*%
%ADD18C,0.11850*%
%ADD19C,0.02400*%
%ADD20C,0.05600*%
%ADD21C,0.01600*%
%ADD22C,0.01000*%
%ADD23C,0.15000*%
%ADD24C,0.05600*%
%ADD25C,0.07600*%
%ADD26C,0.06600*%
%ADD27C,0.04000*%
%ADD28C,0.10000*%
%ADD29C,0.19685*%
%ADD30C,0.03200*%
%ADD31C,0.05512*%
%ADD32C,0.01200*%
D10*
X0137083Y0141768D03*
X0137083Y0201768D03*
X0119296Y0328382D03*
X0208296Y0328382D03*
D11*
X0106217Y0249524D02*
X0106217Y0229524D01*
X0068402Y0228972D02*
X0068402Y0248972D01*
X0067949Y0164661D02*
X0087949Y0164661D01*
X0088068Y0126079D02*
X0068068Y0126079D01*
D12*
X0248852Y0086551D02*
X0254052Y0086551D01*
X0254052Y0076551D02*
X0248852Y0076551D01*
X0248852Y0066551D02*
X0254052Y0066551D01*
X0284052Y0066551D02*
X0289252Y0066551D01*
X0289252Y0076551D02*
X0284052Y0076551D01*
X0284052Y0086551D02*
X0289252Y0086551D01*
X0351375Y0085054D02*
X0351375Y0090254D01*
X0361375Y0090254D02*
X0361375Y0085054D01*
X0371375Y0085054D02*
X0371375Y0090254D01*
X0381375Y0090254D02*
X0381375Y0085054D01*
X0391375Y0085054D02*
X0391375Y0090254D01*
X0401375Y0090254D02*
X0401375Y0085054D01*
D13*
X0225666Y0254012D03*
X0205666Y0254012D03*
X0222083Y0295350D03*
X0182083Y0295350D03*
X0138304Y0283106D03*
X0131099Y0283224D03*
X0111099Y0283224D03*
X0102438Y0282988D03*
X0082438Y0282988D03*
X0138304Y0263106D03*
D14*
X0176808Y0130354D02*
X0176808Y0124354D01*
X0206808Y0118354D02*
X0206808Y0112354D01*
D15*
X0261670Y0277555D03*
X0261670Y0307555D03*
X0371670Y0277555D03*
X0371670Y0337555D03*
D16*
X0206690Y0104226D02*
X0206690Y0095626D01*
X0147635Y0095626D02*
X0147635Y0104226D01*
X0127949Y0104226D02*
X0127949Y0095626D01*
X0108264Y0095626D02*
X0108264Y0104226D01*
D17*
X0108264Y0066098D03*
X0127949Y0066098D03*
X0147635Y0066098D03*
X0206690Y0066098D03*
D18*
X0386591Y0283441D02*
X0398441Y0283441D01*
X0398441Y0307752D02*
X0386591Y0307752D01*
D19*
X0297635Y0245941D02*
X0297635Y0238067D01*
X0296060Y0236492D01*
X0312694Y0206669D02*
X0297635Y0191610D01*
X0297635Y0172417D01*
X0301768Y0168283D01*
X0303146Y0166906D01*
X0303146Y0114445D01*
X0310725Y0126059D02*
X0310725Y0170843D01*
X0306886Y0174681D01*
X0312694Y0206669D02*
X0319682Y0206669D01*
X0250390Y0230193D02*
X0248028Y0227831D01*
X0238579Y0227831D01*
X0235430Y0230980D01*
X0185036Y0230980D01*
X0175587Y0219957D01*
X0175587Y0204209D01*
X0167713Y0196335D01*
X0159052Y0196335D01*
X0155115Y0192398D01*
X0162989Y0166413D02*
X0156690Y0160114D01*
X0155902Y0160114D01*
X0203622Y0153154D02*
X0229792Y0153154D01*
X0229918Y0153028D01*
X0295272Y0140429D02*
X0296060Y0140429D01*
X0296847Y0141217D01*
X0318894Y0113657D02*
X0318894Y0097122D01*
X0318107Y0096335D01*
X0319682Y0094760D01*
X0319682Y0082161D01*
X0329918Y0071925D01*
X0366138Y0071925D01*
X0371375Y0077161D01*
X0371375Y0087654D01*
X0361375Y0087654D02*
X0361414Y0085724D01*
X0361414Y0092398D01*
X0380312Y0111295D01*
X0387398Y0111295D01*
X0354327Y0121531D02*
X0351375Y0118579D01*
X0351375Y0087654D01*
X0318107Y0096335D02*
X0298323Y0076551D01*
X0284052Y0076551D01*
X0296847Y0092398D02*
X0296847Y0094760D01*
X0254052Y0066551D02*
X0253599Y0066098D01*
X0206690Y0066098D01*
X0250390Y0230193D02*
X0250390Y0242004D01*
X0238383Y0254012D01*
X0225666Y0254012D01*
D20*
X0240942Y0236492D03*
X0233068Y0223894D03*
X0239367Y0215232D03*
X0239058Y0207830D03*
X0206431Y0204567D03*
X0187532Y0224140D03*
X0177949Y0236492D03*
X0158264Y0230980D03*
X0138619Y0231639D03*
X0153540Y0256177D03*
X0162989Y0212083D03*
X0155115Y0192398D03*
X0189760Y0175075D03*
X0196195Y0171492D03*
X0203622Y0153154D03*
X0229918Y0153028D03*
X0239846Y0164292D03*
X0296847Y0141217D03*
X0310725Y0126059D03*
X0303146Y0114445D03*
X0318894Y0113657D03*
X0296847Y0092398D03*
X0354327Y0121531D03*
X0387398Y0111295D03*
X0306886Y0174681D03*
X0301768Y0168283D03*
X0303934Y0182949D03*
X0319682Y0206669D03*
X0338579Y0204996D03*
X0368501Y0227043D03*
X0311808Y0260114D03*
X0296060Y0236492D03*
X0155902Y0160114D03*
D21*
X0184249Y0171925D02*
X0184249Y0220463D01*
X0187532Y0224140D01*
X0206431Y0204567D02*
X0196195Y0194331D01*
X0196195Y0171492D01*
X0189760Y0175075D02*
X0189760Y0195547D01*
X0218107Y0223894D01*
X0233068Y0223894D01*
X0239367Y0215232D02*
X0248816Y0215232D01*
X0251965Y0212083D01*
X0251965Y0159327D01*
X0245666Y0153028D01*
X0229918Y0153028D01*
X0239846Y0164292D02*
X0191807Y0164292D01*
X0191807Y0164367D02*
X0184249Y0171925D01*
X0206207Y0191630D02*
X0222858Y0191630D01*
X0239058Y0207830D01*
X0303934Y0182949D02*
X0329918Y0182949D01*
X0338579Y0191610D01*
X0338579Y0204996D01*
X0364564Y0227043D02*
X0368501Y0227043D01*
D22*
X0229918Y0153028D02*
X0229495Y0152592D01*
D23*
X0137083Y0201768D02*
X0106217Y0232634D01*
X0106217Y0239524D01*
D24*
X0137083Y0239720D02*
X0137083Y0231768D01*
X0137212Y0231639D01*
X0138619Y0231639D01*
X0137083Y0231768D02*
X0137083Y0201768D01*
X0137083Y0239720D02*
X0153540Y0256177D01*
X0106296Y0303421D02*
X0096847Y0303421D01*
X0082438Y0289012D01*
X0082438Y0282988D01*
X0068402Y0268953D01*
X0068402Y0238972D01*
X0106296Y0303421D02*
X0118894Y0316020D01*
X0118894Y0327980D01*
X0119296Y0328382D01*
D25*
X0137083Y0201768D02*
X0137792Y0201059D01*
X0137792Y0191610D01*
X0162989Y0166413D01*
X0183855Y0145547D01*
X0184682Y0144720D01*
X0176808Y0127354D01*
X0147635Y0095626D02*
X0147635Y0066098D01*
X0127949Y0066098D02*
X0127949Y0095626D01*
D26*
X0183855Y0145547D02*
X0192123Y0137280D01*
X0225981Y0137280D01*
X0240154Y0123106D01*
X0240154Y0092398D01*
X0246001Y0086551D01*
X0254052Y0086551D01*
X0288973Y0102634D02*
X0296847Y0094760D01*
X0288973Y0102634D02*
X0288973Y0116807D01*
X0295272Y0123106D01*
X0295272Y0140429D01*
X0288973Y0146728D01*
X0288973Y0197909D01*
X0297635Y0206571D01*
X0297635Y0245941D01*
X0349603Y0245941D01*
X0368501Y0227043D01*
X0364564Y0227043D02*
X0364564Y0191610D01*
X0332280Y0159327D01*
X0332280Y0127043D01*
X0318894Y0113657D01*
X0240942Y0236492D02*
X0237005Y0240429D01*
X0184249Y0240429D01*
X0177949Y0236492D01*
X0261670Y0277555D02*
X0266020Y0277555D01*
X0297635Y0245941D01*
X0311808Y0260114D02*
X0311808Y0283736D01*
X0287989Y0307555D01*
X0261670Y0307555D01*
X0372142Y0319268D02*
X0372142Y0335114D01*
X0371670Y0337555D01*
X0372142Y0319268D02*
X0383658Y0307752D01*
X0392516Y0307752D01*
X0392516Y0283441D02*
X0377556Y0283441D01*
X0371670Y0277555D01*
D27*
X0222083Y0295350D02*
X0222083Y0314610D01*
X0208296Y0328382D01*
X0177949Y0236492D02*
X0168501Y0236492D01*
X0162989Y0230980D01*
X0158264Y0230980D01*
X0158264Y0228618D01*
X0162989Y0223894D01*
X0162989Y0212083D01*
X0206808Y0115354D02*
X0206808Y0095744D01*
X0206690Y0095626D01*
D28*
X0147635Y0095626D02*
X0147635Y0131217D01*
X0137083Y0141768D01*
X0116532Y0129406D02*
X0079032Y0129406D01*
X0078068Y0126079D01*
X0116532Y0129406D02*
X0127949Y0117988D01*
X0127949Y0095626D01*
D29*
X0077949Y0164661D02*
X0068402Y0171846D01*
X0068402Y0238972D01*
D30*
X0102438Y0282988D02*
X0110863Y0282988D01*
X0111099Y0283224D01*
X0131099Y0283224D02*
X0138186Y0283224D01*
X0138304Y0283106D01*
D31*
X0206207Y0191630D03*
D32*
X0191807Y0164367D02*
X0191807Y0164292D01*
M02*
