G75*
%MOIN*%
%OFA0B0*%
%FSLAX25Y25*%
%IPPOS*%
%LPD*%
%AMOC8*
5,1,8,0,0,1.08239X$1,22.5*
%
%ADD10C,0.00000*%
%ADD11R,0.05906X0.05118*%
%ADD12R,0.05118X0.05906*%
%ADD13OC8,0.06000*%
%ADD14R,0.15354X0.06299*%
%ADD15R,0.09449X0.07087*%
%ADD16R,0.07087X0.09449*%
%ADD17R,0.06299X0.03150*%
%ADD18C,0.20000*%
%ADD19R,0.04724X0.07874*%
%ADD20R,0.07874X0.04724*%
%ADD21C,0.05200*%
%ADD22R,0.07600X0.21000*%
%ADD23OC8,0.05200*%
%ADD24C,0.06000*%
%ADD25R,0.01378X0.05906*%
%ADD26R,0.07480X0.02500*%
%ADD27C,0.10000*%
%ADD28C,0.08600*%
%ADD29C,0.08600*%
%ADD30C,0.11850*%
%ADD31C,0.04000*%
%ADD32C,0.01200*%
%ADD33C,0.05600*%
%ADD34C,0.02400*%
%ADD35C,0.01600*%
%ADD36C,0.03200*%
%ADD37C,0.06600*%
%ADD38C,0.05600*%
%ADD39C,0.01000*%
%ADD40C,0.05512*%
D10*
X0053934Y0054209D02*
X0053934Y0351453D01*
X0409977Y0351453D01*
X0409977Y0054209D01*
X0053934Y0054209D01*
X0065351Y0067988D02*
X0065353Y0068146D01*
X0065359Y0068304D01*
X0065369Y0068462D01*
X0065383Y0068620D01*
X0065401Y0068777D01*
X0065422Y0068934D01*
X0065448Y0069090D01*
X0065478Y0069246D01*
X0065511Y0069401D01*
X0065549Y0069554D01*
X0065590Y0069707D01*
X0065635Y0069859D01*
X0065684Y0070010D01*
X0065737Y0070159D01*
X0065793Y0070307D01*
X0065853Y0070453D01*
X0065917Y0070598D01*
X0065985Y0070741D01*
X0066056Y0070883D01*
X0066130Y0071023D01*
X0066208Y0071160D01*
X0066290Y0071296D01*
X0066374Y0071430D01*
X0066463Y0071561D01*
X0066554Y0071690D01*
X0066649Y0071817D01*
X0066746Y0071942D01*
X0066847Y0072064D01*
X0066951Y0072183D01*
X0067058Y0072300D01*
X0067168Y0072414D01*
X0067281Y0072525D01*
X0067396Y0072634D01*
X0067514Y0072739D01*
X0067635Y0072841D01*
X0067758Y0072941D01*
X0067884Y0073037D01*
X0068012Y0073130D01*
X0068142Y0073220D01*
X0068275Y0073306D01*
X0068410Y0073390D01*
X0068546Y0073469D01*
X0068685Y0073546D01*
X0068826Y0073618D01*
X0068968Y0073688D01*
X0069112Y0073753D01*
X0069258Y0073815D01*
X0069405Y0073873D01*
X0069554Y0073928D01*
X0069704Y0073979D01*
X0069855Y0074026D01*
X0070007Y0074069D01*
X0070160Y0074108D01*
X0070315Y0074144D01*
X0070470Y0074175D01*
X0070626Y0074203D01*
X0070782Y0074227D01*
X0070939Y0074247D01*
X0071097Y0074263D01*
X0071254Y0074275D01*
X0071413Y0074283D01*
X0071571Y0074287D01*
X0071729Y0074287D01*
X0071887Y0074283D01*
X0072046Y0074275D01*
X0072203Y0074263D01*
X0072361Y0074247D01*
X0072518Y0074227D01*
X0072674Y0074203D01*
X0072830Y0074175D01*
X0072985Y0074144D01*
X0073140Y0074108D01*
X0073293Y0074069D01*
X0073445Y0074026D01*
X0073596Y0073979D01*
X0073746Y0073928D01*
X0073895Y0073873D01*
X0074042Y0073815D01*
X0074188Y0073753D01*
X0074332Y0073688D01*
X0074474Y0073618D01*
X0074615Y0073546D01*
X0074754Y0073469D01*
X0074890Y0073390D01*
X0075025Y0073306D01*
X0075158Y0073220D01*
X0075288Y0073130D01*
X0075416Y0073037D01*
X0075542Y0072941D01*
X0075665Y0072841D01*
X0075786Y0072739D01*
X0075904Y0072634D01*
X0076019Y0072525D01*
X0076132Y0072414D01*
X0076242Y0072300D01*
X0076349Y0072183D01*
X0076453Y0072064D01*
X0076554Y0071942D01*
X0076651Y0071817D01*
X0076746Y0071690D01*
X0076837Y0071561D01*
X0076926Y0071430D01*
X0077010Y0071296D01*
X0077092Y0071160D01*
X0077170Y0071023D01*
X0077244Y0070883D01*
X0077315Y0070741D01*
X0077383Y0070598D01*
X0077447Y0070453D01*
X0077507Y0070307D01*
X0077563Y0070159D01*
X0077616Y0070010D01*
X0077665Y0069859D01*
X0077710Y0069707D01*
X0077751Y0069554D01*
X0077789Y0069401D01*
X0077822Y0069246D01*
X0077852Y0069090D01*
X0077878Y0068934D01*
X0077899Y0068777D01*
X0077917Y0068620D01*
X0077931Y0068462D01*
X0077941Y0068304D01*
X0077947Y0068146D01*
X0077949Y0067988D01*
X0077947Y0067830D01*
X0077941Y0067672D01*
X0077931Y0067514D01*
X0077917Y0067356D01*
X0077899Y0067199D01*
X0077878Y0067042D01*
X0077852Y0066886D01*
X0077822Y0066730D01*
X0077789Y0066575D01*
X0077751Y0066422D01*
X0077710Y0066269D01*
X0077665Y0066117D01*
X0077616Y0065966D01*
X0077563Y0065817D01*
X0077507Y0065669D01*
X0077447Y0065523D01*
X0077383Y0065378D01*
X0077315Y0065235D01*
X0077244Y0065093D01*
X0077170Y0064953D01*
X0077092Y0064816D01*
X0077010Y0064680D01*
X0076926Y0064546D01*
X0076837Y0064415D01*
X0076746Y0064286D01*
X0076651Y0064159D01*
X0076554Y0064034D01*
X0076453Y0063912D01*
X0076349Y0063793D01*
X0076242Y0063676D01*
X0076132Y0063562D01*
X0076019Y0063451D01*
X0075904Y0063342D01*
X0075786Y0063237D01*
X0075665Y0063135D01*
X0075542Y0063035D01*
X0075416Y0062939D01*
X0075288Y0062846D01*
X0075158Y0062756D01*
X0075025Y0062670D01*
X0074890Y0062586D01*
X0074754Y0062507D01*
X0074615Y0062430D01*
X0074474Y0062358D01*
X0074332Y0062288D01*
X0074188Y0062223D01*
X0074042Y0062161D01*
X0073895Y0062103D01*
X0073746Y0062048D01*
X0073596Y0061997D01*
X0073445Y0061950D01*
X0073293Y0061907D01*
X0073140Y0061868D01*
X0072985Y0061832D01*
X0072830Y0061801D01*
X0072674Y0061773D01*
X0072518Y0061749D01*
X0072361Y0061729D01*
X0072203Y0061713D01*
X0072046Y0061701D01*
X0071887Y0061693D01*
X0071729Y0061689D01*
X0071571Y0061689D01*
X0071413Y0061693D01*
X0071254Y0061701D01*
X0071097Y0061713D01*
X0070939Y0061729D01*
X0070782Y0061749D01*
X0070626Y0061773D01*
X0070470Y0061801D01*
X0070315Y0061832D01*
X0070160Y0061868D01*
X0070007Y0061907D01*
X0069855Y0061950D01*
X0069704Y0061997D01*
X0069554Y0062048D01*
X0069405Y0062103D01*
X0069258Y0062161D01*
X0069112Y0062223D01*
X0068968Y0062288D01*
X0068826Y0062358D01*
X0068685Y0062430D01*
X0068546Y0062507D01*
X0068410Y0062586D01*
X0068275Y0062670D01*
X0068142Y0062756D01*
X0068012Y0062846D01*
X0067884Y0062939D01*
X0067758Y0063035D01*
X0067635Y0063135D01*
X0067514Y0063237D01*
X0067396Y0063342D01*
X0067281Y0063451D01*
X0067168Y0063562D01*
X0067058Y0063676D01*
X0066951Y0063793D01*
X0066847Y0063912D01*
X0066746Y0064034D01*
X0066649Y0064159D01*
X0066554Y0064286D01*
X0066463Y0064415D01*
X0066374Y0064546D01*
X0066290Y0064680D01*
X0066208Y0064816D01*
X0066130Y0064953D01*
X0066056Y0065093D01*
X0065985Y0065235D01*
X0065917Y0065378D01*
X0065853Y0065523D01*
X0065793Y0065669D01*
X0065737Y0065817D01*
X0065684Y0065966D01*
X0065635Y0066117D01*
X0065590Y0066269D01*
X0065549Y0066422D01*
X0065511Y0066575D01*
X0065478Y0066730D01*
X0065448Y0066886D01*
X0065422Y0067042D01*
X0065401Y0067199D01*
X0065383Y0067356D01*
X0065369Y0067514D01*
X0065359Y0067672D01*
X0065353Y0067830D01*
X0065351Y0067988D01*
X0065351Y0335705D02*
X0065353Y0335863D01*
X0065359Y0336021D01*
X0065369Y0336179D01*
X0065383Y0336337D01*
X0065401Y0336494D01*
X0065422Y0336651D01*
X0065448Y0336807D01*
X0065478Y0336963D01*
X0065511Y0337118D01*
X0065549Y0337271D01*
X0065590Y0337424D01*
X0065635Y0337576D01*
X0065684Y0337727D01*
X0065737Y0337876D01*
X0065793Y0338024D01*
X0065853Y0338170D01*
X0065917Y0338315D01*
X0065985Y0338458D01*
X0066056Y0338600D01*
X0066130Y0338740D01*
X0066208Y0338877D01*
X0066290Y0339013D01*
X0066374Y0339147D01*
X0066463Y0339278D01*
X0066554Y0339407D01*
X0066649Y0339534D01*
X0066746Y0339659D01*
X0066847Y0339781D01*
X0066951Y0339900D01*
X0067058Y0340017D01*
X0067168Y0340131D01*
X0067281Y0340242D01*
X0067396Y0340351D01*
X0067514Y0340456D01*
X0067635Y0340558D01*
X0067758Y0340658D01*
X0067884Y0340754D01*
X0068012Y0340847D01*
X0068142Y0340937D01*
X0068275Y0341023D01*
X0068410Y0341107D01*
X0068546Y0341186D01*
X0068685Y0341263D01*
X0068826Y0341335D01*
X0068968Y0341405D01*
X0069112Y0341470D01*
X0069258Y0341532D01*
X0069405Y0341590D01*
X0069554Y0341645D01*
X0069704Y0341696D01*
X0069855Y0341743D01*
X0070007Y0341786D01*
X0070160Y0341825D01*
X0070315Y0341861D01*
X0070470Y0341892D01*
X0070626Y0341920D01*
X0070782Y0341944D01*
X0070939Y0341964D01*
X0071097Y0341980D01*
X0071254Y0341992D01*
X0071413Y0342000D01*
X0071571Y0342004D01*
X0071729Y0342004D01*
X0071887Y0342000D01*
X0072046Y0341992D01*
X0072203Y0341980D01*
X0072361Y0341964D01*
X0072518Y0341944D01*
X0072674Y0341920D01*
X0072830Y0341892D01*
X0072985Y0341861D01*
X0073140Y0341825D01*
X0073293Y0341786D01*
X0073445Y0341743D01*
X0073596Y0341696D01*
X0073746Y0341645D01*
X0073895Y0341590D01*
X0074042Y0341532D01*
X0074188Y0341470D01*
X0074332Y0341405D01*
X0074474Y0341335D01*
X0074615Y0341263D01*
X0074754Y0341186D01*
X0074890Y0341107D01*
X0075025Y0341023D01*
X0075158Y0340937D01*
X0075288Y0340847D01*
X0075416Y0340754D01*
X0075542Y0340658D01*
X0075665Y0340558D01*
X0075786Y0340456D01*
X0075904Y0340351D01*
X0076019Y0340242D01*
X0076132Y0340131D01*
X0076242Y0340017D01*
X0076349Y0339900D01*
X0076453Y0339781D01*
X0076554Y0339659D01*
X0076651Y0339534D01*
X0076746Y0339407D01*
X0076837Y0339278D01*
X0076926Y0339147D01*
X0077010Y0339013D01*
X0077092Y0338877D01*
X0077170Y0338740D01*
X0077244Y0338600D01*
X0077315Y0338458D01*
X0077383Y0338315D01*
X0077447Y0338170D01*
X0077507Y0338024D01*
X0077563Y0337876D01*
X0077616Y0337727D01*
X0077665Y0337576D01*
X0077710Y0337424D01*
X0077751Y0337271D01*
X0077789Y0337118D01*
X0077822Y0336963D01*
X0077852Y0336807D01*
X0077878Y0336651D01*
X0077899Y0336494D01*
X0077917Y0336337D01*
X0077931Y0336179D01*
X0077941Y0336021D01*
X0077947Y0335863D01*
X0077949Y0335705D01*
X0077947Y0335547D01*
X0077941Y0335389D01*
X0077931Y0335231D01*
X0077917Y0335073D01*
X0077899Y0334916D01*
X0077878Y0334759D01*
X0077852Y0334603D01*
X0077822Y0334447D01*
X0077789Y0334292D01*
X0077751Y0334139D01*
X0077710Y0333986D01*
X0077665Y0333834D01*
X0077616Y0333683D01*
X0077563Y0333534D01*
X0077507Y0333386D01*
X0077447Y0333240D01*
X0077383Y0333095D01*
X0077315Y0332952D01*
X0077244Y0332810D01*
X0077170Y0332670D01*
X0077092Y0332533D01*
X0077010Y0332397D01*
X0076926Y0332263D01*
X0076837Y0332132D01*
X0076746Y0332003D01*
X0076651Y0331876D01*
X0076554Y0331751D01*
X0076453Y0331629D01*
X0076349Y0331510D01*
X0076242Y0331393D01*
X0076132Y0331279D01*
X0076019Y0331168D01*
X0075904Y0331059D01*
X0075786Y0330954D01*
X0075665Y0330852D01*
X0075542Y0330752D01*
X0075416Y0330656D01*
X0075288Y0330563D01*
X0075158Y0330473D01*
X0075025Y0330387D01*
X0074890Y0330303D01*
X0074754Y0330224D01*
X0074615Y0330147D01*
X0074474Y0330075D01*
X0074332Y0330005D01*
X0074188Y0329940D01*
X0074042Y0329878D01*
X0073895Y0329820D01*
X0073746Y0329765D01*
X0073596Y0329714D01*
X0073445Y0329667D01*
X0073293Y0329624D01*
X0073140Y0329585D01*
X0072985Y0329549D01*
X0072830Y0329518D01*
X0072674Y0329490D01*
X0072518Y0329466D01*
X0072361Y0329446D01*
X0072203Y0329430D01*
X0072046Y0329418D01*
X0071887Y0329410D01*
X0071729Y0329406D01*
X0071571Y0329406D01*
X0071413Y0329410D01*
X0071254Y0329418D01*
X0071097Y0329430D01*
X0070939Y0329446D01*
X0070782Y0329466D01*
X0070626Y0329490D01*
X0070470Y0329518D01*
X0070315Y0329549D01*
X0070160Y0329585D01*
X0070007Y0329624D01*
X0069855Y0329667D01*
X0069704Y0329714D01*
X0069554Y0329765D01*
X0069405Y0329820D01*
X0069258Y0329878D01*
X0069112Y0329940D01*
X0068968Y0330005D01*
X0068826Y0330075D01*
X0068685Y0330147D01*
X0068546Y0330224D01*
X0068410Y0330303D01*
X0068275Y0330387D01*
X0068142Y0330473D01*
X0068012Y0330563D01*
X0067884Y0330656D01*
X0067758Y0330752D01*
X0067635Y0330852D01*
X0067514Y0330954D01*
X0067396Y0331059D01*
X0067281Y0331168D01*
X0067168Y0331279D01*
X0067058Y0331393D01*
X0066951Y0331510D01*
X0066847Y0331629D01*
X0066746Y0331751D01*
X0066649Y0331876D01*
X0066554Y0332003D01*
X0066463Y0332132D01*
X0066374Y0332263D01*
X0066290Y0332397D01*
X0066208Y0332533D01*
X0066130Y0332670D01*
X0066056Y0332810D01*
X0065985Y0332952D01*
X0065917Y0333095D01*
X0065853Y0333240D01*
X0065793Y0333386D01*
X0065737Y0333534D01*
X0065684Y0333683D01*
X0065635Y0333834D01*
X0065590Y0333986D01*
X0065549Y0334139D01*
X0065511Y0334292D01*
X0065478Y0334447D01*
X0065448Y0334603D01*
X0065422Y0334759D01*
X0065401Y0334916D01*
X0065383Y0335073D01*
X0065369Y0335231D01*
X0065359Y0335389D01*
X0065353Y0335547D01*
X0065351Y0335705D01*
X0390135Y0335803D02*
X0390137Y0335961D01*
X0390143Y0336119D01*
X0390153Y0336277D01*
X0390167Y0336435D01*
X0390185Y0336592D01*
X0390206Y0336749D01*
X0390232Y0336905D01*
X0390262Y0337061D01*
X0390295Y0337216D01*
X0390333Y0337369D01*
X0390374Y0337522D01*
X0390419Y0337674D01*
X0390468Y0337825D01*
X0390521Y0337974D01*
X0390577Y0338122D01*
X0390637Y0338268D01*
X0390701Y0338413D01*
X0390769Y0338556D01*
X0390840Y0338698D01*
X0390914Y0338838D01*
X0390992Y0338975D01*
X0391074Y0339111D01*
X0391158Y0339245D01*
X0391247Y0339376D01*
X0391338Y0339505D01*
X0391433Y0339632D01*
X0391530Y0339757D01*
X0391631Y0339879D01*
X0391735Y0339998D01*
X0391842Y0340115D01*
X0391952Y0340229D01*
X0392065Y0340340D01*
X0392180Y0340449D01*
X0392298Y0340554D01*
X0392419Y0340656D01*
X0392542Y0340756D01*
X0392668Y0340852D01*
X0392796Y0340945D01*
X0392926Y0341035D01*
X0393059Y0341121D01*
X0393194Y0341205D01*
X0393330Y0341284D01*
X0393469Y0341361D01*
X0393610Y0341433D01*
X0393752Y0341503D01*
X0393896Y0341568D01*
X0394042Y0341630D01*
X0394189Y0341688D01*
X0394338Y0341743D01*
X0394488Y0341794D01*
X0394639Y0341841D01*
X0394791Y0341884D01*
X0394944Y0341923D01*
X0395099Y0341959D01*
X0395254Y0341990D01*
X0395410Y0342018D01*
X0395566Y0342042D01*
X0395723Y0342062D01*
X0395881Y0342078D01*
X0396038Y0342090D01*
X0396197Y0342098D01*
X0396355Y0342102D01*
X0396513Y0342102D01*
X0396671Y0342098D01*
X0396830Y0342090D01*
X0396987Y0342078D01*
X0397145Y0342062D01*
X0397302Y0342042D01*
X0397458Y0342018D01*
X0397614Y0341990D01*
X0397769Y0341959D01*
X0397924Y0341923D01*
X0398077Y0341884D01*
X0398229Y0341841D01*
X0398380Y0341794D01*
X0398530Y0341743D01*
X0398679Y0341688D01*
X0398826Y0341630D01*
X0398972Y0341568D01*
X0399116Y0341503D01*
X0399258Y0341433D01*
X0399399Y0341361D01*
X0399538Y0341284D01*
X0399674Y0341205D01*
X0399809Y0341121D01*
X0399942Y0341035D01*
X0400072Y0340945D01*
X0400200Y0340852D01*
X0400326Y0340756D01*
X0400449Y0340656D01*
X0400570Y0340554D01*
X0400688Y0340449D01*
X0400803Y0340340D01*
X0400916Y0340229D01*
X0401026Y0340115D01*
X0401133Y0339998D01*
X0401237Y0339879D01*
X0401338Y0339757D01*
X0401435Y0339632D01*
X0401530Y0339505D01*
X0401621Y0339376D01*
X0401710Y0339245D01*
X0401794Y0339111D01*
X0401876Y0338975D01*
X0401954Y0338838D01*
X0402028Y0338698D01*
X0402099Y0338556D01*
X0402167Y0338413D01*
X0402231Y0338268D01*
X0402291Y0338122D01*
X0402347Y0337974D01*
X0402400Y0337825D01*
X0402449Y0337674D01*
X0402494Y0337522D01*
X0402535Y0337369D01*
X0402573Y0337216D01*
X0402606Y0337061D01*
X0402636Y0336905D01*
X0402662Y0336749D01*
X0402683Y0336592D01*
X0402701Y0336435D01*
X0402715Y0336277D01*
X0402725Y0336119D01*
X0402731Y0335961D01*
X0402733Y0335803D01*
X0402731Y0335645D01*
X0402725Y0335487D01*
X0402715Y0335329D01*
X0402701Y0335171D01*
X0402683Y0335014D01*
X0402662Y0334857D01*
X0402636Y0334701D01*
X0402606Y0334545D01*
X0402573Y0334390D01*
X0402535Y0334237D01*
X0402494Y0334084D01*
X0402449Y0333932D01*
X0402400Y0333781D01*
X0402347Y0333632D01*
X0402291Y0333484D01*
X0402231Y0333338D01*
X0402167Y0333193D01*
X0402099Y0333050D01*
X0402028Y0332908D01*
X0401954Y0332768D01*
X0401876Y0332631D01*
X0401794Y0332495D01*
X0401710Y0332361D01*
X0401621Y0332230D01*
X0401530Y0332101D01*
X0401435Y0331974D01*
X0401338Y0331849D01*
X0401237Y0331727D01*
X0401133Y0331608D01*
X0401026Y0331491D01*
X0400916Y0331377D01*
X0400803Y0331266D01*
X0400688Y0331157D01*
X0400570Y0331052D01*
X0400449Y0330950D01*
X0400326Y0330850D01*
X0400200Y0330754D01*
X0400072Y0330661D01*
X0399942Y0330571D01*
X0399809Y0330485D01*
X0399674Y0330401D01*
X0399538Y0330322D01*
X0399399Y0330245D01*
X0399258Y0330173D01*
X0399116Y0330103D01*
X0398972Y0330038D01*
X0398826Y0329976D01*
X0398679Y0329918D01*
X0398530Y0329863D01*
X0398380Y0329812D01*
X0398229Y0329765D01*
X0398077Y0329722D01*
X0397924Y0329683D01*
X0397769Y0329647D01*
X0397614Y0329616D01*
X0397458Y0329588D01*
X0397302Y0329564D01*
X0397145Y0329544D01*
X0396987Y0329528D01*
X0396830Y0329516D01*
X0396671Y0329508D01*
X0396513Y0329504D01*
X0396355Y0329504D01*
X0396197Y0329508D01*
X0396038Y0329516D01*
X0395881Y0329528D01*
X0395723Y0329544D01*
X0395566Y0329564D01*
X0395410Y0329588D01*
X0395254Y0329616D01*
X0395099Y0329647D01*
X0394944Y0329683D01*
X0394791Y0329722D01*
X0394639Y0329765D01*
X0394488Y0329812D01*
X0394338Y0329863D01*
X0394189Y0329918D01*
X0394042Y0329976D01*
X0393896Y0330038D01*
X0393752Y0330103D01*
X0393610Y0330173D01*
X0393469Y0330245D01*
X0393330Y0330322D01*
X0393194Y0330401D01*
X0393059Y0330485D01*
X0392926Y0330571D01*
X0392796Y0330661D01*
X0392668Y0330754D01*
X0392542Y0330850D01*
X0392419Y0330950D01*
X0392298Y0331052D01*
X0392180Y0331157D01*
X0392065Y0331266D01*
X0391952Y0331377D01*
X0391842Y0331491D01*
X0391735Y0331608D01*
X0391631Y0331727D01*
X0391530Y0331849D01*
X0391433Y0331974D01*
X0391338Y0332101D01*
X0391247Y0332230D01*
X0391158Y0332361D01*
X0391074Y0332495D01*
X0390992Y0332631D01*
X0390914Y0332768D01*
X0390840Y0332908D01*
X0390769Y0333050D01*
X0390701Y0333193D01*
X0390637Y0333338D01*
X0390577Y0333484D01*
X0390521Y0333632D01*
X0390468Y0333781D01*
X0390419Y0333932D01*
X0390374Y0334084D01*
X0390333Y0334237D01*
X0390295Y0334390D01*
X0390262Y0334545D01*
X0390232Y0334701D01*
X0390206Y0334857D01*
X0390185Y0335014D01*
X0390167Y0335171D01*
X0390153Y0335329D01*
X0390143Y0335487D01*
X0390137Y0335645D01*
X0390135Y0335803D01*
X0390154Y0067988D02*
X0390156Y0068146D01*
X0390162Y0068304D01*
X0390172Y0068462D01*
X0390186Y0068620D01*
X0390204Y0068777D01*
X0390225Y0068934D01*
X0390251Y0069090D01*
X0390281Y0069246D01*
X0390314Y0069401D01*
X0390352Y0069554D01*
X0390393Y0069707D01*
X0390438Y0069859D01*
X0390487Y0070010D01*
X0390540Y0070159D01*
X0390596Y0070307D01*
X0390656Y0070453D01*
X0390720Y0070598D01*
X0390788Y0070741D01*
X0390859Y0070883D01*
X0390933Y0071023D01*
X0391011Y0071160D01*
X0391093Y0071296D01*
X0391177Y0071430D01*
X0391266Y0071561D01*
X0391357Y0071690D01*
X0391452Y0071817D01*
X0391549Y0071942D01*
X0391650Y0072064D01*
X0391754Y0072183D01*
X0391861Y0072300D01*
X0391971Y0072414D01*
X0392084Y0072525D01*
X0392199Y0072634D01*
X0392317Y0072739D01*
X0392438Y0072841D01*
X0392561Y0072941D01*
X0392687Y0073037D01*
X0392815Y0073130D01*
X0392945Y0073220D01*
X0393078Y0073306D01*
X0393213Y0073390D01*
X0393349Y0073469D01*
X0393488Y0073546D01*
X0393629Y0073618D01*
X0393771Y0073688D01*
X0393915Y0073753D01*
X0394061Y0073815D01*
X0394208Y0073873D01*
X0394357Y0073928D01*
X0394507Y0073979D01*
X0394658Y0074026D01*
X0394810Y0074069D01*
X0394963Y0074108D01*
X0395118Y0074144D01*
X0395273Y0074175D01*
X0395429Y0074203D01*
X0395585Y0074227D01*
X0395742Y0074247D01*
X0395900Y0074263D01*
X0396057Y0074275D01*
X0396216Y0074283D01*
X0396374Y0074287D01*
X0396532Y0074287D01*
X0396690Y0074283D01*
X0396849Y0074275D01*
X0397006Y0074263D01*
X0397164Y0074247D01*
X0397321Y0074227D01*
X0397477Y0074203D01*
X0397633Y0074175D01*
X0397788Y0074144D01*
X0397943Y0074108D01*
X0398096Y0074069D01*
X0398248Y0074026D01*
X0398399Y0073979D01*
X0398549Y0073928D01*
X0398698Y0073873D01*
X0398845Y0073815D01*
X0398991Y0073753D01*
X0399135Y0073688D01*
X0399277Y0073618D01*
X0399418Y0073546D01*
X0399557Y0073469D01*
X0399693Y0073390D01*
X0399828Y0073306D01*
X0399961Y0073220D01*
X0400091Y0073130D01*
X0400219Y0073037D01*
X0400345Y0072941D01*
X0400468Y0072841D01*
X0400589Y0072739D01*
X0400707Y0072634D01*
X0400822Y0072525D01*
X0400935Y0072414D01*
X0401045Y0072300D01*
X0401152Y0072183D01*
X0401256Y0072064D01*
X0401357Y0071942D01*
X0401454Y0071817D01*
X0401549Y0071690D01*
X0401640Y0071561D01*
X0401729Y0071430D01*
X0401813Y0071296D01*
X0401895Y0071160D01*
X0401973Y0071023D01*
X0402047Y0070883D01*
X0402118Y0070741D01*
X0402186Y0070598D01*
X0402250Y0070453D01*
X0402310Y0070307D01*
X0402366Y0070159D01*
X0402419Y0070010D01*
X0402468Y0069859D01*
X0402513Y0069707D01*
X0402554Y0069554D01*
X0402592Y0069401D01*
X0402625Y0069246D01*
X0402655Y0069090D01*
X0402681Y0068934D01*
X0402702Y0068777D01*
X0402720Y0068620D01*
X0402734Y0068462D01*
X0402744Y0068304D01*
X0402750Y0068146D01*
X0402752Y0067988D01*
X0402750Y0067830D01*
X0402744Y0067672D01*
X0402734Y0067514D01*
X0402720Y0067356D01*
X0402702Y0067199D01*
X0402681Y0067042D01*
X0402655Y0066886D01*
X0402625Y0066730D01*
X0402592Y0066575D01*
X0402554Y0066422D01*
X0402513Y0066269D01*
X0402468Y0066117D01*
X0402419Y0065966D01*
X0402366Y0065817D01*
X0402310Y0065669D01*
X0402250Y0065523D01*
X0402186Y0065378D01*
X0402118Y0065235D01*
X0402047Y0065093D01*
X0401973Y0064953D01*
X0401895Y0064816D01*
X0401813Y0064680D01*
X0401729Y0064546D01*
X0401640Y0064415D01*
X0401549Y0064286D01*
X0401454Y0064159D01*
X0401357Y0064034D01*
X0401256Y0063912D01*
X0401152Y0063793D01*
X0401045Y0063676D01*
X0400935Y0063562D01*
X0400822Y0063451D01*
X0400707Y0063342D01*
X0400589Y0063237D01*
X0400468Y0063135D01*
X0400345Y0063035D01*
X0400219Y0062939D01*
X0400091Y0062846D01*
X0399961Y0062756D01*
X0399828Y0062670D01*
X0399693Y0062586D01*
X0399557Y0062507D01*
X0399418Y0062430D01*
X0399277Y0062358D01*
X0399135Y0062288D01*
X0398991Y0062223D01*
X0398845Y0062161D01*
X0398698Y0062103D01*
X0398549Y0062048D01*
X0398399Y0061997D01*
X0398248Y0061950D01*
X0398096Y0061907D01*
X0397943Y0061868D01*
X0397788Y0061832D01*
X0397633Y0061801D01*
X0397477Y0061773D01*
X0397321Y0061749D01*
X0397164Y0061729D01*
X0397006Y0061713D01*
X0396849Y0061701D01*
X0396690Y0061693D01*
X0396532Y0061689D01*
X0396374Y0061689D01*
X0396216Y0061693D01*
X0396057Y0061701D01*
X0395900Y0061713D01*
X0395742Y0061729D01*
X0395585Y0061749D01*
X0395429Y0061773D01*
X0395273Y0061801D01*
X0395118Y0061832D01*
X0394963Y0061868D01*
X0394810Y0061907D01*
X0394658Y0061950D01*
X0394507Y0061997D01*
X0394357Y0062048D01*
X0394208Y0062103D01*
X0394061Y0062161D01*
X0393915Y0062223D01*
X0393771Y0062288D01*
X0393629Y0062358D01*
X0393488Y0062430D01*
X0393349Y0062507D01*
X0393213Y0062586D01*
X0393078Y0062670D01*
X0392945Y0062756D01*
X0392815Y0062846D01*
X0392687Y0062939D01*
X0392561Y0063035D01*
X0392438Y0063135D01*
X0392317Y0063237D01*
X0392199Y0063342D01*
X0392084Y0063451D01*
X0391971Y0063562D01*
X0391861Y0063676D01*
X0391754Y0063793D01*
X0391650Y0063912D01*
X0391549Y0064034D01*
X0391452Y0064159D01*
X0391357Y0064286D01*
X0391266Y0064415D01*
X0391177Y0064546D01*
X0391093Y0064680D01*
X0391011Y0064816D01*
X0390933Y0064953D01*
X0390859Y0065093D01*
X0390788Y0065235D01*
X0390720Y0065378D01*
X0390656Y0065523D01*
X0390596Y0065669D01*
X0390540Y0065817D01*
X0390487Y0065966D01*
X0390438Y0066117D01*
X0390393Y0066269D01*
X0390352Y0066422D01*
X0390314Y0066575D01*
X0390281Y0066730D01*
X0390251Y0066886D01*
X0390225Y0067042D01*
X0390204Y0067199D01*
X0390186Y0067356D01*
X0390172Y0067514D01*
X0390162Y0067672D01*
X0390156Y0067830D01*
X0390154Y0067988D01*
D11*
X0350095Y0103677D03*
X0350095Y0111157D03*
X0335095Y0111157D03*
X0335095Y0103677D03*
X0296375Y0101531D03*
X0296375Y0109012D03*
X0296375Y0149091D03*
X0296375Y0156571D03*
X0240666Y0156472D03*
X0240666Y0148992D03*
X0240568Y0110685D03*
X0240568Y0103205D03*
X0162772Y0164780D03*
X0162772Y0172260D03*
X0164072Y0181157D03*
X0164072Y0188638D03*
X0164052Y0197280D03*
X0164052Y0204760D03*
X0153855Y0215665D03*
X0153855Y0223146D03*
X0165115Y0227240D03*
X0165115Y0234720D03*
X0153068Y0239602D03*
X0153068Y0247083D03*
X0138796Y0247083D03*
X0138796Y0239602D03*
X0138619Y0223264D03*
X0138619Y0215783D03*
X0148737Y0178795D03*
X0148737Y0171315D03*
X0217516Y0233815D03*
X0217516Y0241295D03*
X0236690Y0249878D03*
X0236690Y0257358D03*
X0246138Y0249445D03*
X0246138Y0241965D03*
X0241355Y0229110D03*
X0241355Y0221630D03*
X0296375Y0222752D03*
X0296375Y0230232D03*
X0361375Y0215921D03*
X0361375Y0208441D03*
X0375095Y0208441D03*
X0375095Y0215921D03*
X0387536Y0210980D03*
X0387536Y0203500D03*
D12*
X0327615Y0123579D03*
X0320135Y0123579D03*
X0311631Y0066551D03*
X0304150Y0066551D03*
X0180036Y0162260D03*
X0172556Y0162260D03*
X0172654Y0172673D03*
X0180135Y0172673D03*
X0165312Y0149130D03*
X0157831Y0149130D03*
X0196886Y0227594D03*
X0204367Y0227594D03*
D13*
X0137083Y0201768D03*
X0137083Y0141768D03*
X0119296Y0328382D03*
X0208296Y0328382D03*
D14*
X0195587Y0266020D03*
X0162123Y0266020D03*
X0318481Y0231197D03*
X0351946Y0231197D03*
D15*
X0219091Y0264898D03*
X0219091Y0280843D03*
D16*
X0173205Y0295232D03*
X0157260Y0295232D03*
D17*
X0190823Y0242319D03*
X0204209Y0242319D03*
D18*
X0106217Y0249524D02*
X0106217Y0229524D01*
X0068402Y0228972D02*
X0068402Y0248972D01*
X0067949Y0164661D02*
X0087949Y0164661D01*
X0088068Y0126079D02*
X0068068Y0126079D01*
D19*
X0322969Y0133520D03*
X0330843Y0133520D03*
X0338717Y0133520D03*
X0346591Y0133520D03*
X0354465Y0133520D03*
X0362339Y0133520D03*
X0370213Y0133520D03*
X0378087Y0133520D03*
X0378087Y0197299D03*
X0370213Y0197299D03*
X0362339Y0197299D03*
X0354465Y0197299D03*
X0346591Y0197299D03*
X0338717Y0197299D03*
X0330843Y0197299D03*
X0322969Y0197299D03*
D20*
X0315095Y0185488D03*
X0315095Y0177614D03*
X0315095Y0169740D03*
X0315095Y0161866D03*
X0315095Y0153992D03*
X0315095Y0146118D03*
D21*
X0351375Y0090254D02*
X0351375Y0085054D01*
X0361375Y0085054D02*
X0361375Y0090254D01*
X0371375Y0090254D02*
X0371375Y0085054D01*
X0381375Y0085054D02*
X0381375Y0090254D01*
X0391375Y0090254D02*
X0391375Y0085054D01*
X0401375Y0085054D02*
X0401375Y0090254D01*
X0289252Y0086551D02*
X0284052Y0086551D01*
X0284052Y0076551D02*
X0289252Y0076551D01*
X0289252Y0066551D02*
X0284052Y0066551D01*
X0254052Y0066551D02*
X0248852Y0066551D01*
X0248852Y0076551D02*
X0254052Y0076551D01*
X0254052Y0086551D02*
X0248852Y0086551D01*
D22*
X0221690Y0171094D03*
X0221690Y0209094D03*
D23*
X0225666Y0254012D03*
X0205666Y0254012D03*
X0222083Y0295350D03*
X0182083Y0295350D03*
X0138304Y0283106D03*
X0131099Y0283224D03*
X0111099Y0283224D03*
X0102438Y0282988D03*
X0082438Y0282988D03*
X0138304Y0263106D03*
D24*
X0176808Y0130354D02*
X0176808Y0124354D01*
X0206808Y0118354D02*
X0206808Y0112354D01*
D25*
X0200272Y0187732D03*
X0197713Y0187732D03*
X0195154Y0187732D03*
X0192595Y0187732D03*
X0190036Y0187732D03*
X0187477Y0187732D03*
X0184918Y0187732D03*
X0182359Y0187732D03*
X0179800Y0187732D03*
X0177241Y0187732D03*
X0174682Y0187732D03*
X0172123Y0187732D03*
X0172123Y0217161D03*
X0174682Y0217161D03*
X0177241Y0217161D03*
X0179800Y0217161D03*
X0182359Y0217161D03*
X0184918Y0217161D03*
X0187477Y0217161D03*
X0190036Y0217161D03*
X0192595Y0217161D03*
X0195154Y0217161D03*
X0197713Y0217161D03*
X0200272Y0217161D03*
D26*
X0250272Y0215213D03*
X0250272Y0220213D03*
X0250272Y0225213D03*
X0250272Y0230213D03*
X0250272Y0210213D03*
X0250272Y0205213D03*
X0250272Y0200213D03*
X0250272Y0195213D03*
X0250272Y0183992D03*
X0250272Y0178992D03*
X0250272Y0173992D03*
X0250272Y0168992D03*
X0250272Y0163992D03*
X0250272Y0158992D03*
X0250272Y0153992D03*
X0250272Y0148992D03*
X0250272Y0137772D03*
X0250272Y0132772D03*
X0250272Y0127772D03*
X0250272Y0122772D03*
X0250272Y0117772D03*
X0250272Y0112772D03*
X0250272Y0107772D03*
X0250272Y0102772D03*
X0287772Y0102772D03*
X0287772Y0107772D03*
X0287772Y0112772D03*
X0287772Y0117772D03*
X0287772Y0122772D03*
X0287772Y0127772D03*
X0287772Y0132772D03*
X0287772Y0137772D03*
X0287772Y0148992D03*
X0287772Y0153992D03*
X0287772Y0158992D03*
X0287772Y0163992D03*
X0287772Y0168992D03*
X0287772Y0173992D03*
X0287772Y0178992D03*
X0287772Y0183992D03*
X0287772Y0195213D03*
X0287772Y0200213D03*
X0287772Y0205213D03*
X0287772Y0210213D03*
X0287772Y0215213D03*
X0287772Y0220213D03*
X0287772Y0225213D03*
X0287772Y0230213D03*
D27*
X0261670Y0277555D03*
X0261670Y0307555D03*
X0371670Y0277555D03*
X0371670Y0337555D03*
D28*
X0206690Y0104226D02*
X0206690Y0095626D01*
X0147635Y0095626D02*
X0147635Y0104226D01*
X0127949Y0104226D02*
X0127949Y0095626D01*
X0108264Y0095626D02*
X0108264Y0104226D01*
D29*
X0108264Y0066098D03*
X0127949Y0066098D03*
X0147635Y0066098D03*
X0206690Y0066098D03*
D30*
X0386591Y0283441D02*
X0398441Y0283441D01*
X0398441Y0307752D02*
X0386591Y0307752D01*
D31*
X0246138Y0241965D02*
X0246138Y0241689D01*
X0240942Y0236492D01*
X0225666Y0254012D02*
X0217516Y0245862D01*
X0217516Y0241295D01*
X0216493Y0242319D01*
X0204209Y0242319D01*
X0205666Y0254012D02*
X0204131Y0255547D01*
X0219091Y0264898D01*
X0203678Y0265232D01*
X0195587Y0266020D01*
X0199741Y0280843D02*
X0186611Y0293972D01*
X0183461Y0293972D01*
X0182083Y0295350D01*
X0181965Y0295232D01*
X0173205Y0295232D01*
X0199741Y0280843D02*
X0219091Y0280843D01*
X0190823Y0242319D02*
X0185036Y0242319D01*
X0162123Y0266020D01*
X0153068Y0239602D02*
X0153540Y0239130D01*
X0153540Y0223461D02*
X0153855Y0223146D01*
D32*
X0165115Y0227240D02*
X0170666Y0227240D01*
X0177162Y0220744D01*
X0177162Y0217240D01*
X0177241Y0217161D01*
X0179800Y0217161D02*
X0179800Y0222043D01*
X0167713Y0234130D01*
X0165705Y0234130D01*
X0165115Y0234720D01*
X0172123Y0217161D02*
X0172123Y0210193D01*
X0166926Y0204996D01*
X0162713Y0204996D01*
X0164052Y0204760D01*
X0164052Y0197280D02*
X0162497Y0197260D01*
X0163894Y0197122D02*
X0166926Y0197122D01*
X0172123Y0191925D01*
X0172123Y0187732D01*
X0172438Y0188047D01*
X0174682Y0187732D02*
X0174800Y0187614D01*
X0174800Y0182949D01*
X0173009Y0181157D01*
X0164072Y0181157D01*
X0164072Y0188638D02*
X0164072Y0197260D01*
X0164052Y0197280D01*
X0172123Y0210193D02*
X0174682Y0212752D01*
X0174682Y0217161D01*
X0184918Y0217161D02*
X0184918Y0221526D01*
X0187532Y0224140D01*
X0192595Y0223303D02*
X0192595Y0217161D01*
X0195154Y0217161D02*
X0195154Y0220626D01*
X0196847Y0222319D01*
X0201572Y0222319D01*
X0203934Y0224681D01*
X0203934Y0227161D01*
X0204367Y0227594D01*
X0196886Y0227594D02*
X0192595Y0223303D01*
X0187477Y0217161D02*
X0187398Y0217083D01*
X0187398Y0206571D01*
X0194485Y0199484D01*
X0209446Y0199484D01*
X0216532Y0192398D01*
X0230705Y0192398D01*
X0244879Y0206571D01*
X0244879Y0208933D01*
X0246158Y0210213D01*
X0250272Y0210213D01*
X0256690Y0201846D02*
X0256690Y0182161D01*
X0255115Y0183736D01*
X0250528Y0183736D01*
X0250272Y0183992D01*
X0256690Y0182161D02*
X0256690Y0150665D01*
X0256690Y0135705D01*
X0256690Y0104996D01*
X0254327Y0102634D01*
X0250410Y0102634D01*
X0250272Y0102772D01*
X0256690Y0135705D02*
X0254623Y0137772D01*
X0250272Y0137772D01*
X0250272Y0148992D02*
X0255016Y0148992D01*
X0256690Y0150665D01*
X0250272Y0168992D02*
X0243875Y0168992D01*
X0227556Y0185311D01*
X0219682Y0185311D01*
X0208658Y0196335D01*
X0191335Y0196335D01*
X0187477Y0192476D01*
X0187477Y0187732D01*
X0190036Y0187732D02*
X0190036Y0191098D01*
X0192930Y0193992D01*
X0203845Y0193992D01*
X0206207Y0191630D01*
X0202690Y0187732D02*
X0221690Y0171094D01*
X0202690Y0187732D02*
X0200272Y0187732D01*
X0189760Y0175075D02*
X0188186Y0175075D01*
X0182359Y0180902D01*
X0182359Y0187732D01*
X0194620Y0204567D02*
X0189895Y0209292D01*
X0189895Y0216492D01*
X0200272Y0217161D02*
X0211260Y0217161D01*
X0221690Y0209094D01*
X0206431Y0204567D02*
X0194620Y0204567D01*
X0250272Y0200213D02*
X0255056Y0200213D01*
X0256690Y0201846D01*
X0256690Y0228618D01*
X0255115Y0230193D01*
X0250292Y0230193D01*
X0250272Y0230213D01*
D33*
X0240942Y0236492D03*
X0233068Y0223894D03*
X0239367Y0215232D03*
X0239058Y0207830D03*
X0206431Y0204567D03*
X0187532Y0224140D03*
X0177949Y0236492D03*
X0158264Y0230980D03*
X0138619Y0231639D03*
X0153540Y0256177D03*
X0162989Y0212083D03*
X0155115Y0192398D03*
X0189760Y0175075D03*
X0196195Y0171492D03*
X0203622Y0153154D03*
X0229918Y0153028D03*
X0239846Y0164292D03*
X0296847Y0141217D03*
X0310725Y0126059D03*
X0303146Y0114445D03*
X0318894Y0113657D03*
X0296847Y0092398D03*
X0354327Y0121531D03*
X0387398Y0111295D03*
X0306886Y0174681D03*
X0301768Y0168283D03*
X0303934Y0182949D03*
X0319682Y0206669D03*
X0338579Y0204996D03*
X0368501Y0227043D03*
X0311808Y0260114D03*
X0296060Y0236492D03*
X0155902Y0160114D03*
D34*
X0158048Y0162260D01*
X0172556Y0162260D01*
X0170036Y0164780D01*
X0162772Y0164780D01*
X0164072Y0181157D02*
X0163855Y0181374D01*
X0159052Y0181374D01*
X0157477Y0182949D01*
X0157477Y0186098D01*
X0155115Y0188461D01*
X0155115Y0192398D01*
X0153855Y0215665D02*
X0153737Y0215783D01*
X0138619Y0215783D01*
X0153855Y0223146D02*
X0154327Y0223618D01*
X0154327Y0227043D01*
X0158264Y0230980D01*
X0154327Y0234917D01*
X0154327Y0238343D01*
X0153068Y0239602D01*
X0177949Y0236492D02*
X0180312Y0234130D01*
X0188186Y0234130D01*
X0194721Y0227594D01*
X0196886Y0227594D01*
X0204367Y0227594D02*
X0211296Y0227594D01*
X0216001Y0232299D01*
X0217516Y0233815D01*
X0236690Y0249878D02*
X0245705Y0249878D01*
X0246138Y0249445D01*
X0236690Y0257358D02*
X0236611Y0257358D01*
X0229918Y0264051D01*
X0219938Y0264051D01*
X0219091Y0264898D01*
X0242457Y0230213D02*
X0241355Y0229110D01*
X0242457Y0230213D02*
X0250272Y0230213D01*
X0241355Y0221630D02*
X0242772Y0220213D01*
X0250272Y0220213D01*
X0281099Y0228618D02*
X0281099Y0197122D01*
X0283009Y0195213D01*
X0287772Y0195213D01*
X0287772Y0210213D02*
X0296946Y0210213D01*
X0303757Y0203402D01*
X0303757Y0191886D01*
X0309446Y0186197D01*
X0314386Y0186197D01*
X0315095Y0185488D01*
X0322969Y0197299D02*
X0322969Y0203382D01*
X0319682Y0206669D01*
X0323520Y0206669D02*
X0323520Y0197850D01*
X0322969Y0197299D01*
X0323520Y0206669D02*
X0332772Y0215921D01*
X0333757Y0215921D01*
X0318481Y0231197D01*
X0330961Y0243677D01*
X0368304Y0243677D01*
X0387536Y0224445D01*
X0387536Y0210980D01*
X0388009Y0210508D01*
X0394485Y0210508D01*
X0398422Y0206571D01*
X0398422Y0200272D01*
X0378737Y0180587D01*
X0378737Y0154602D01*
X0392910Y0140429D01*
X0392910Y0119957D01*
X0401375Y0111492D01*
X0401375Y0087654D01*
X0391375Y0087654D02*
X0391375Y0094031D01*
X0378087Y0107319D01*
X0378087Y0133520D01*
X0370213Y0133520D02*
X0370213Y0104957D01*
X0381099Y0094071D01*
X0381099Y0085961D01*
X0381375Y0087654D01*
X0387398Y0111295D02*
X0386611Y0112083D01*
X0386611Y0138854D01*
X0356690Y0168776D01*
X0356690Y0189248D01*
X0376375Y0189248D01*
X0377949Y0190823D01*
X0377949Y0197161D01*
X0378087Y0197299D01*
X0378087Y0202831D01*
X0378757Y0203500D01*
X0387536Y0203500D01*
X0378087Y0202831D02*
X0378087Y0205449D01*
X0375095Y0208441D01*
X0375095Y0215921D02*
X0374701Y0216315D01*
X0374701Y0219465D01*
X0362969Y0231197D01*
X0351946Y0231197D01*
X0361375Y0215921D02*
X0333757Y0215921D01*
X0314170Y0232555D02*
X0304367Y0222752D01*
X0296375Y0222752D01*
X0296099Y0222752D01*
X0293560Y0220213D01*
X0287772Y0220213D01*
X0281099Y0228618D02*
X0282674Y0230193D01*
X0287753Y0230193D01*
X0287772Y0230213D01*
X0296355Y0230213D01*
X0296375Y0230232D01*
X0296060Y0230547D01*
X0296060Y0236492D01*
X0354465Y0197299D02*
X0354465Y0191472D01*
X0356690Y0189248D01*
X0362339Y0197299D02*
X0363186Y0198146D01*
X0363186Y0202831D01*
X0361375Y0204642D01*
X0361375Y0208441D01*
X0321178Y0153992D02*
X0315095Y0153992D01*
X0321178Y0153992D02*
X0323520Y0151650D01*
X0323520Y0142693D01*
X0320961Y0140134D01*
X0317123Y0140134D01*
X0314564Y0137575D01*
X0314564Y0129898D01*
X0310725Y0126059D01*
X0320135Y0123579D02*
X0320961Y0124406D01*
X0320961Y0128618D01*
X0322969Y0130626D01*
X0322969Y0133520D01*
X0330843Y0133520D02*
X0330843Y0126807D01*
X0327615Y0123579D01*
X0335095Y0113323D02*
X0338875Y0117102D01*
X0338875Y0133362D01*
X0338717Y0133520D01*
X0346552Y0133480D02*
X0346591Y0133520D01*
X0346552Y0133480D02*
X0346552Y0118382D01*
X0350095Y0114839D01*
X0350095Y0114445D01*
X0354327Y0118677D01*
X0354327Y0121531D01*
X0350095Y0114445D02*
X0350095Y0111157D01*
X0335095Y0111157D02*
X0335095Y0113323D01*
X0335095Y0103677D02*
X0334839Y0103421D01*
X0313383Y0103421D01*
X0303146Y0113657D01*
X0303146Y0114445D01*
X0297713Y0109012D01*
X0296375Y0109012D01*
X0292615Y0112772D01*
X0287772Y0112772D01*
X0287772Y0102772D02*
X0282831Y0102772D01*
X0281296Y0104307D01*
X0281296Y0131177D01*
X0282890Y0132772D01*
X0287772Y0132772D01*
X0296847Y0141217D02*
X0296847Y0148618D01*
X0296375Y0149091D01*
X0296276Y0148992D01*
X0287772Y0148992D01*
X0282674Y0148992D01*
X0281296Y0150370D01*
X0281296Y0177240D01*
X0283048Y0178992D01*
X0287772Y0178992D01*
X0287772Y0158992D02*
X0293953Y0158992D01*
X0296375Y0156571D01*
X0250272Y0158992D02*
X0243186Y0158992D01*
X0240666Y0156472D01*
X0240666Y0148992D02*
X0250272Y0148992D01*
X0231493Y0125283D02*
X0203622Y0153154D01*
X0231493Y0125283D02*
X0231493Y0121531D01*
X0240253Y0112772D01*
X0242654Y0112772D01*
X0240568Y0110685D01*
X0242654Y0112772D02*
X0250272Y0112772D01*
X0250272Y0102772D02*
X0241001Y0102772D01*
X0240568Y0103205D01*
X0284052Y0066551D02*
X0304150Y0066551D01*
X0311631Y0066551D02*
X0312280Y0067201D01*
X0296847Y0092398D02*
X0296375Y0092870D01*
X0296375Y0101531D01*
X0295135Y0102772D01*
X0287772Y0102772D01*
D35*
X0287772Y0117772D02*
X0296237Y0117772D01*
X0302359Y0123894D01*
X0302359Y0129406D01*
X0307871Y0134917D01*
X0307871Y0157752D01*
X0311808Y0161689D01*
X0314918Y0161689D01*
X0315095Y0161866D01*
X0308658Y0164839D02*
X0308658Y0167201D01*
X0311020Y0169563D01*
X0314918Y0169563D01*
X0315095Y0169740D01*
X0308658Y0164839D02*
X0303934Y0160114D01*
X0303934Y0135705D01*
X0298422Y0130193D01*
X0298422Y0125469D01*
X0295725Y0122772D01*
X0287772Y0122772D01*
X0318894Y0122339D02*
X0318894Y0113657D01*
X0318894Y0122339D02*
X0320135Y0123579D01*
X0343304Y0097516D02*
X0313776Y0067988D01*
X0313068Y0067988D01*
X0311631Y0066551D01*
X0343304Y0097516D02*
X0357083Y0097516D01*
X0362339Y0102772D01*
X0362339Y0133520D01*
X0354465Y0133520D02*
X0354327Y0133657D01*
X0354327Y0140429D01*
X0324406Y0170350D01*
X0324406Y0186098D01*
X0319682Y0190823D01*
X0314957Y0190823D01*
X0309446Y0196335D01*
X0309446Y0203421D01*
X0297654Y0215213D01*
X0287772Y0215213D01*
X0303934Y0182949D02*
X0293698Y0172713D01*
X0293698Y0170350D01*
X0292339Y0168992D01*
X0287772Y0168992D01*
X0288225Y0164445D02*
X0287772Y0163992D01*
X0288225Y0164445D02*
X0294091Y0164445D01*
X0296650Y0167004D01*
X0296650Y0170843D01*
X0300489Y0174681D01*
X0306886Y0174681D01*
X0301768Y0168283D02*
X0300784Y0167299D01*
X0300784Y0165626D01*
X0296375Y0161217D01*
X0296375Y0156571D01*
X0250272Y0122772D02*
X0249938Y0123106D01*
X0244879Y0123106D01*
X0242516Y0125469D01*
X0242516Y0128618D01*
X0203934Y0167201D01*
X0203934Y0175862D01*
X0197635Y0182161D01*
X0197635Y0187654D01*
X0197713Y0187732D01*
X0196195Y0171492D02*
X0196847Y0170840D01*
X0196847Y0168776D01*
X0237792Y0127831D01*
X0237792Y0124681D01*
X0244081Y0118392D01*
X0246595Y0118392D01*
X0240371Y0156177D02*
X0233068Y0156177D01*
X0229918Y0153028D01*
X0240371Y0156177D02*
X0240666Y0156472D01*
X0180036Y0158264D02*
X0172438Y0150665D01*
X0166847Y0150665D01*
X0165312Y0149130D01*
X0157831Y0149130D02*
X0144446Y0149130D01*
X0137083Y0141768D01*
X0148737Y0171315D02*
X0155292Y0171315D01*
X0155902Y0171925D01*
X0162438Y0171925D01*
X0162772Y0172260D01*
X0172241Y0172260D01*
X0172654Y0172673D01*
X0172438Y0172890D01*
X0172438Y0175075D01*
X0177241Y0179878D01*
X0177241Y0187732D01*
X0179800Y0187732D02*
X0179800Y0173008D01*
X0180135Y0172673D01*
X0180036Y0172575D01*
X0180036Y0162260D01*
X0180036Y0158264D01*
X0162772Y0172260D02*
X0162142Y0172890D01*
X0148737Y0178795D02*
X0148737Y0182240D01*
X0137792Y0193185D01*
X0137792Y0201059D01*
X0137083Y0201768D01*
X0158264Y0199484D02*
X0160627Y0197122D01*
X0163894Y0197122D01*
X0164052Y0197280D01*
X0158264Y0199484D02*
X0158264Y0208146D01*
X0162201Y0212083D01*
X0162989Y0212083D01*
X0216001Y0232299D02*
X0233068Y0215232D01*
X0239367Y0215232D01*
X0239623Y0220213D01*
X0250272Y0220213D01*
X0233068Y0223894D02*
X0233068Y0245154D01*
X0236690Y0249563D01*
X0236690Y0249878D01*
X0338579Y0204996D02*
X0338579Y0197437D01*
X0338717Y0197299D01*
X0368501Y0227043D02*
X0364347Y0231197D01*
X0351946Y0231197D01*
D36*
X0350095Y0103677D02*
X0335095Y0103677D01*
X0206808Y0115354D02*
X0198024Y0106571D01*
X0173225Y0106571D01*
X0155902Y0123894D01*
X0124406Y0123894D01*
X0111808Y0136492D01*
X0111808Y0152240D01*
X0099209Y0164839D01*
X0075764Y0164839D01*
X0077949Y0164661D01*
X0153855Y0215665D02*
X0157910Y0215665D01*
X0165351Y0223106D01*
X0165351Y0227004D01*
X0165115Y0227240D01*
X0165115Y0234720D02*
X0165351Y0234957D01*
X0165351Y0238854D01*
X0157123Y0247083D01*
X0153068Y0247083D01*
X0138796Y0247083D01*
X0138304Y0247575D01*
X0138304Y0263106D01*
X0157260Y0270882D02*
X0162123Y0266020D01*
X0157260Y0270882D02*
X0157260Y0295232D01*
X0153737Y0223264D02*
X0153855Y0223146D01*
D37*
X0177949Y0236492D02*
X0183461Y0242004D01*
X0185036Y0242319D01*
X0311808Y0234917D02*
X0314170Y0232555D01*
X0315745Y0230980D01*
X0318264Y0230980D01*
X0318481Y0231197D01*
X0311808Y0234917D02*
X0311808Y0260114D01*
D38*
X0240942Y0236492D02*
X0240942Y0229524D01*
X0241355Y0229110D01*
X0162123Y0266020D02*
X0153540Y0257437D01*
X0153540Y0256177D01*
X0138796Y0239602D02*
X0138619Y0239425D01*
X0138619Y0231639D01*
X0138619Y0223264D01*
D39*
X0189895Y0216492D02*
X0190036Y0217161D01*
X0189895Y0188592D02*
X0190036Y0187732D01*
X0239058Y0207830D02*
X0245920Y0214692D01*
X0250195Y0214692D01*
X0250272Y0215213D01*
X0250195Y0164292D02*
X0239846Y0164292D01*
X0250195Y0164292D02*
X0250272Y0163992D01*
X0250195Y0118392D02*
X0246595Y0118392D01*
X0250195Y0118392D02*
X0250272Y0117772D01*
D40*
X0206207Y0191630D03*
M02*
