G75*
%MOIN*%
%OFA0B0*%
%FSLAX25Y25*%
%IPPOS*%
%LPD*%
%AMOC8*
5,1,8,0,0,1.08239X$1,22.5*
%
%ADD10C,0.00600*%
%ADD11C,0.01600*%
%ADD12C,0.00400*%
%ADD13C,0.00800*%
%ADD14R,0.09646X0.02657*%
%ADD15R,0.02657X0.09646*%
%ADD16C,0.00500*%
%ADD17C,0.00200*%
%ADD18C,0.02400*%
%ADD19C,0.00300*%
D10*
X0159308Y0114854D02*
X0159308Y0127854D01*
X0159310Y0127952D01*
X0159316Y0128050D01*
X0159325Y0128148D01*
X0159339Y0128245D01*
X0159356Y0128342D01*
X0159377Y0128438D01*
X0159402Y0128533D01*
X0159430Y0128627D01*
X0159463Y0128719D01*
X0159498Y0128811D01*
X0159538Y0128901D01*
X0159580Y0128989D01*
X0159627Y0129076D01*
X0159676Y0129160D01*
X0159729Y0129243D01*
X0159785Y0129323D01*
X0159845Y0129402D01*
X0159907Y0129478D01*
X0159972Y0129551D01*
X0160040Y0129622D01*
X0160111Y0129690D01*
X0160184Y0129755D01*
X0160260Y0129817D01*
X0160339Y0129877D01*
X0160419Y0129933D01*
X0160502Y0129986D01*
X0160586Y0130035D01*
X0160673Y0130082D01*
X0160761Y0130124D01*
X0160851Y0130164D01*
X0160943Y0130199D01*
X0161035Y0130232D01*
X0161129Y0130260D01*
X0161224Y0130285D01*
X0161320Y0130306D01*
X0161417Y0130323D01*
X0161514Y0130337D01*
X0161612Y0130346D01*
X0161710Y0130352D01*
X0161808Y0130354D01*
X0172308Y0130354D01*
X0177308Y0132854D02*
X0199308Y0132854D01*
X0199406Y0132852D01*
X0199504Y0132846D01*
X0199602Y0132837D01*
X0199699Y0132823D01*
X0199796Y0132806D01*
X0199892Y0132785D01*
X0199987Y0132760D01*
X0200081Y0132732D01*
X0200173Y0132699D01*
X0200265Y0132664D01*
X0200355Y0132624D01*
X0200443Y0132582D01*
X0200530Y0132535D01*
X0200614Y0132486D01*
X0200697Y0132433D01*
X0200777Y0132377D01*
X0200856Y0132317D01*
X0200932Y0132255D01*
X0201005Y0132190D01*
X0201076Y0132122D01*
X0201144Y0132051D01*
X0201209Y0131978D01*
X0201271Y0131902D01*
X0201331Y0131823D01*
X0201387Y0131743D01*
X0201440Y0131660D01*
X0201489Y0131576D01*
X0201536Y0131489D01*
X0201578Y0131401D01*
X0201618Y0131311D01*
X0201653Y0131219D01*
X0201686Y0131127D01*
X0201714Y0131033D01*
X0201739Y0130938D01*
X0201760Y0130842D01*
X0201777Y0130745D01*
X0201791Y0130648D01*
X0201800Y0130550D01*
X0201806Y0130452D01*
X0201808Y0130354D01*
X0221808Y0130354D02*
X0181308Y0130354D01*
X0181808Y0112354D02*
X0181810Y0112256D01*
X0181816Y0112158D01*
X0181825Y0112060D01*
X0181839Y0111963D01*
X0181856Y0111866D01*
X0181877Y0111770D01*
X0181902Y0111675D01*
X0181930Y0111581D01*
X0181963Y0111489D01*
X0181998Y0111397D01*
X0182038Y0111307D01*
X0182080Y0111219D01*
X0182127Y0111132D01*
X0182176Y0111048D01*
X0182229Y0110965D01*
X0182285Y0110885D01*
X0182345Y0110806D01*
X0182407Y0110730D01*
X0182472Y0110657D01*
X0182540Y0110586D01*
X0182611Y0110518D01*
X0182684Y0110453D01*
X0182760Y0110391D01*
X0182839Y0110331D01*
X0182919Y0110275D01*
X0183002Y0110222D01*
X0183086Y0110173D01*
X0183173Y0110126D01*
X0183261Y0110084D01*
X0183351Y0110044D01*
X0183443Y0110009D01*
X0183535Y0109976D01*
X0183629Y0109948D01*
X0183724Y0109923D01*
X0183820Y0109902D01*
X0183917Y0109885D01*
X0184014Y0109871D01*
X0184112Y0109862D01*
X0184210Y0109856D01*
X0184308Y0109854D01*
X0206308Y0109854D01*
X0202308Y0112354D02*
X0161808Y0112354D01*
X0161710Y0112356D01*
X0161612Y0112362D01*
X0161514Y0112371D01*
X0161417Y0112385D01*
X0161320Y0112402D01*
X0161224Y0112423D01*
X0161129Y0112448D01*
X0161035Y0112476D01*
X0160943Y0112509D01*
X0160851Y0112544D01*
X0160761Y0112584D01*
X0160673Y0112626D01*
X0160586Y0112673D01*
X0160502Y0112722D01*
X0160419Y0112775D01*
X0160339Y0112831D01*
X0160260Y0112891D01*
X0160184Y0112953D01*
X0160111Y0113018D01*
X0160040Y0113086D01*
X0159972Y0113157D01*
X0159907Y0113230D01*
X0159845Y0113306D01*
X0159785Y0113385D01*
X0159729Y0113465D01*
X0159676Y0113548D01*
X0159627Y0113632D01*
X0159580Y0113719D01*
X0159538Y0113807D01*
X0159498Y0113897D01*
X0159463Y0113989D01*
X0159430Y0114081D01*
X0159402Y0114175D01*
X0159377Y0114270D01*
X0159356Y0114366D01*
X0159339Y0114463D01*
X0159325Y0114560D01*
X0159316Y0114658D01*
X0159310Y0114756D01*
X0159308Y0114854D01*
X0147583Y0146268D02*
X0141083Y0146268D01*
X0147583Y0146268D02*
X0147659Y0146270D01*
X0147735Y0146276D01*
X0147810Y0146285D01*
X0147885Y0146299D01*
X0147959Y0146316D01*
X0148032Y0146337D01*
X0148104Y0146361D01*
X0148175Y0146390D01*
X0148244Y0146421D01*
X0148311Y0146456D01*
X0148376Y0146495D01*
X0148440Y0146537D01*
X0148501Y0146582D01*
X0148560Y0146630D01*
X0148616Y0146681D01*
X0148670Y0146735D01*
X0148721Y0146791D01*
X0148769Y0146850D01*
X0148814Y0146911D01*
X0148856Y0146975D01*
X0148895Y0147040D01*
X0148930Y0147107D01*
X0148961Y0147176D01*
X0148990Y0147247D01*
X0149014Y0147319D01*
X0149035Y0147392D01*
X0149052Y0147466D01*
X0149066Y0147541D01*
X0149075Y0147616D01*
X0149081Y0147692D01*
X0149083Y0147768D01*
X0149083Y0151268D01*
X0148083Y0152268D01*
X0148083Y0191268D01*
X0149083Y0192268D01*
X0149083Y0195768D01*
X0149081Y0195844D01*
X0149075Y0195920D01*
X0149066Y0195995D01*
X0149052Y0196070D01*
X0149035Y0196144D01*
X0149014Y0196217D01*
X0148990Y0196289D01*
X0148961Y0196360D01*
X0148930Y0196429D01*
X0148895Y0196496D01*
X0148856Y0196561D01*
X0148814Y0196625D01*
X0148769Y0196686D01*
X0148721Y0196745D01*
X0148670Y0196801D01*
X0148616Y0196855D01*
X0148560Y0196906D01*
X0148501Y0196954D01*
X0148440Y0196999D01*
X0148376Y0197041D01*
X0148311Y0197080D01*
X0148244Y0197115D01*
X0148175Y0197146D01*
X0148104Y0197175D01*
X0148032Y0197199D01*
X0147959Y0197220D01*
X0147885Y0197237D01*
X0147810Y0197251D01*
X0147735Y0197260D01*
X0147659Y0197266D01*
X0147583Y0197268D01*
X0141083Y0197268D01*
X0133083Y0197268D02*
X0126583Y0197268D01*
X0126507Y0197266D01*
X0126431Y0197260D01*
X0126356Y0197251D01*
X0126281Y0197237D01*
X0126207Y0197220D01*
X0126134Y0197199D01*
X0126062Y0197175D01*
X0125991Y0197146D01*
X0125922Y0197115D01*
X0125855Y0197080D01*
X0125790Y0197041D01*
X0125726Y0196999D01*
X0125665Y0196954D01*
X0125606Y0196906D01*
X0125550Y0196855D01*
X0125496Y0196801D01*
X0125445Y0196745D01*
X0125397Y0196686D01*
X0125352Y0196625D01*
X0125310Y0196561D01*
X0125271Y0196496D01*
X0125236Y0196429D01*
X0125205Y0196360D01*
X0125176Y0196289D01*
X0125152Y0196217D01*
X0125131Y0196144D01*
X0125114Y0196070D01*
X0125100Y0195995D01*
X0125091Y0195920D01*
X0125085Y0195844D01*
X0125083Y0195768D01*
X0125083Y0192268D01*
X0126083Y0191268D01*
X0126083Y0152268D01*
X0125083Y0151268D01*
X0125083Y0147768D01*
X0125085Y0147692D01*
X0125091Y0147616D01*
X0125100Y0147541D01*
X0125114Y0147466D01*
X0125131Y0147392D01*
X0125152Y0147319D01*
X0125176Y0147247D01*
X0125205Y0147176D01*
X0125236Y0147107D01*
X0125271Y0147040D01*
X0125310Y0146975D01*
X0125352Y0146911D01*
X0125397Y0146850D01*
X0125445Y0146791D01*
X0125496Y0146735D01*
X0125550Y0146681D01*
X0125606Y0146630D01*
X0125665Y0146582D01*
X0125726Y0146537D01*
X0125790Y0146495D01*
X0125855Y0146456D01*
X0125922Y0146421D01*
X0125991Y0146390D01*
X0126062Y0146361D01*
X0126134Y0146337D01*
X0126207Y0146316D01*
X0126281Y0146299D01*
X0126356Y0146285D01*
X0126431Y0146276D01*
X0126507Y0146270D01*
X0126583Y0146268D01*
X0133083Y0146268D01*
X0212190Y0168594D02*
X0212190Y0211594D01*
X0212192Y0211654D01*
X0212197Y0211715D01*
X0212206Y0211774D01*
X0212219Y0211833D01*
X0212235Y0211892D01*
X0212255Y0211949D01*
X0212278Y0212004D01*
X0212305Y0212059D01*
X0212334Y0212111D01*
X0212367Y0212162D01*
X0212403Y0212211D01*
X0212441Y0212257D01*
X0212483Y0212301D01*
X0212527Y0212343D01*
X0212573Y0212381D01*
X0212622Y0212417D01*
X0212673Y0212450D01*
X0212725Y0212479D01*
X0212780Y0212506D01*
X0212835Y0212529D01*
X0212892Y0212549D01*
X0212951Y0212565D01*
X0213010Y0212578D01*
X0213069Y0212587D01*
X0213130Y0212592D01*
X0213190Y0212594D01*
X0217190Y0212594D01*
X0226190Y0212594D02*
X0230190Y0212594D01*
X0230250Y0212592D01*
X0230311Y0212587D01*
X0230370Y0212578D01*
X0230429Y0212565D01*
X0230488Y0212549D01*
X0230545Y0212529D01*
X0230600Y0212506D01*
X0230655Y0212479D01*
X0230707Y0212450D01*
X0230758Y0212417D01*
X0230807Y0212381D01*
X0230853Y0212343D01*
X0230897Y0212301D01*
X0230939Y0212257D01*
X0230977Y0212211D01*
X0231013Y0212162D01*
X0231046Y0212111D01*
X0231075Y0212059D01*
X0231102Y0212004D01*
X0231125Y0211949D01*
X0231145Y0211892D01*
X0231161Y0211833D01*
X0231174Y0211774D01*
X0231183Y0211715D01*
X0231188Y0211654D01*
X0231190Y0211594D01*
X0231190Y0168594D01*
X0231188Y0168534D01*
X0231183Y0168473D01*
X0231174Y0168414D01*
X0231161Y0168355D01*
X0231145Y0168296D01*
X0231125Y0168239D01*
X0231102Y0168184D01*
X0231075Y0168129D01*
X0231046Y0168077D01*
X0231013Y0168026D01*
X0230977Y0167977D01*
X0230939Y0167931D01*
X0230897Y0167887D01*
X0230853Y0167845D01*
X0230807Y0167807D01*
X0230758Y0167771D01*
X0230707Y0167738D01*
X0230655Y0167709D01*
X0230600Y0167682D01*
X0230545Y0167659D01*
X0230488Y0167639D01*
X0230429Y0167623D01*
X0230370Y0167610D01*
X0230311Y0167601D01*
X0230250Y0167596D01*
X0230190Y0167594D01*
X0226190Y0167594D01*
X0217190Y0167594D02*
X0213190Y0167594D01*
X0213130Y0167596D01*
X0213069Y0167601D01*
X0213010Y0167610D01*
X0212951Y0167623D01*
X0212892Y0167639D01*
X0212835Y0167659D01*
X0212780Y0167682D01*
X0212725Y0167709D01*
X0212673Y0167738D01*
X0212622Y0167771D01*
X0212573Y0167807D01*
X0212527Y0167845D01*
X0212483Y0167887D01*
X0212441Y0167931D01*
X0212403Y0167977D01*
X0212367Y0168026D01*
X0212334Y0168077D01*
X0212305Y0168129D01*
X0212278Y0168184D01*
X0212255Y0168239D01*
X0212235Y0168296D01*
X0212219Y0168355D01*
X0212206Y0168414D01*
X0212197Y0168473D01*
X0212192Y0168534D01*
X0212190Y0168594D01*
X0219190Y0187594D02*
X0221690Y0187594D01*
X0224190Y0187594D01*
X0224190Y0189094D02*
X0219190Y0189094D01*
X0219190Y0191094D01*
X0224190Y0191094D01*
X0224190Y0189094D01*
X0224190Y0192594D02*
X0221690Y0192594D01*
X0219190Y0192594D01*
X0221808Y0130354D02*
X0221906Y0130352D01*
X0222004Y0130346D01*
X0222102Y0130337D01*
X0222199Y0130323D01*
X0222296Y0130306D01*
X0222392Y0130285D01*
X0222487Y0130260D01*
X0222581Y0130232D01*
X0222673Y0130199D01*
X0222765Y0130164D01*
X0222855Y0130124D01*
X0222943Y0130082D01*
X0223030Y0130035D01*
X0223114Y0129986D01*
X0223197Y0129933D01*
X0223277Y0129877D01*
X0223356Y0129817D01*
X0223432Y0129755D01*
X0223505Y0129690D01*
X0223576Y0129622D01*
X0223644Y0129551D01*
X0223709Y0129478D01*
X0223771Y0129402D01*
X0223831Y0129323D01*
X0223887Y0129243D01*
X0223940Y0129160D01*
X0223989Y0129076D01*
X0224036Y0128989D01*
X0224078Y0128901D01*
X0224118Y0128811D01*
X0224153Y0128719D01*
X0224186Y0128627D01*
X0224214Y0128533D01*
X0224239Y0128438D01*
X0224260Y0128342D01*
X0224277Y0128245D01*
X0224291Y0128148D01*
X0224300Y0128050D01*
X0224306Y0127952D01*
X0224308Y0127854D01*
X0224308Y0114854D01*
X0224306Y0114756D01*
X0224300Y0114658D01*
X0224291Y0114560D01*
X0224277Y0114463D01*
X0224260Y0114366D01*
X0224239Y0114270D01*
X0224214Y0114175D01*
X0224186Y0114081D01*
X0224153Y0113989D01*
X0224118Y0113897D01*
X0224078Y0113807D01*
X0224036Y0113719D01*
X0223989Y0113632D01*
X0223940Y0113548D01*
X0223887Y0113465D01*
X0223831Y0113385D01*
X0223771Y0113306D01*
X0223709Y0113230D01*
X0223644Y0113157D01*
X0223576Y0113086D01*
X0223505Y0113018D01*
X0223432Y0112953D01*
X0223356Y0112891D01*
X0223277Y0112831D01*
X0223197Y0112775D01*
X0223114Y0112722D01*
X0223030Y0112673D01*
X0222943Y0112626D01*
X0222855Y0112584D01*
X0222765Y0112544D01*
X0222673Y0112509D01*
X0222581Y0112476D01*
X0222487Y0112448D01*
X0222392Y0112423D01*
X0222296Y0112402D01*
X0222199Y0112385D01*
X0222102Y0112371D01*
X0222004Y0112362D01*
X0221906Y0112356D01*
X0221808Y0112354D01*
X0211308Y0112354D01*
X0257552Y0091551D02*
X0280552Y0091551D01*
X0280552Y0061551D01*
X0273052Y0061551D01*
X0273050Y0061677D01*
X0273044Y0061802D01*
X0273034Y0061927D01*
X0273020Y0062052D01*
X0273003Y0062177D01*
X0272981Y0062301D01*
X0272956Y0062424D01*
X0272926Y0062546D01*
X0272893Y0062667D01*
X0272856Y0062787D01*
X0272816Y0062906D01*
X0272771Y0063023D01*
X0272723Y0063140D01*
X0272671Y0063254D01*
X0272616Y0063367D01*
X0272557Y0063478D01*
X0272495Y0063587D01*
X0272429Y0063694D01*
X0272360Y0063799D01*
X0272288Y0063902D01*
X0272213Y0064003D01*
X0272134Y0064101D01*
X0272052Y0064196D01*
X0271968Y0064289D01*
X0271880Y0064379D01*
X0271790Y0064467D01*
X0271697Y0064551D01*
X0271602Y0064633D01*
X0271504Y0064712D01*
X0271403Y0064787D01*
X0271300Y0064859D01*
X0271195Y0064928D01*
X0271088Y0064994D01*
X0270979Y0065056D01*
X0270868Y0065115D01*
X0270755Y0065170D01*
X0270641Y0065222D01*
X0270524Y0065270D01*
X0270407Y0065315D01*
X0270288Y0065355D01*
X0270168Y0065392D01*
X0270047Y0065425D01*
X0269925Y0065455D01*
X0269802Y0065480D01*
X0269678Y0065502D01*
X0269553Y0065519D01*
X0269428Y0065533D01*
X0269303Y0065543D01*
X0269178Y0065549D01*
X0269052Y0065551D01*
X0268926Y0065549D01*
X0268801Y0065543D01*
X0268676Y0065533D01*
X0268551Y0065519D01*
X0268426Y0065502D01*
X0268302Y0065480D01*
X0268179Y0065455D01*
X0268057Y0065425D01*
X0267936Y0065392D01*
X0267816Y0065355D01*
X0267697Y0065315D01*
X0267580Y0065270D01*
X0267463Y0065222D01*
X0267349Y0065170D01*
X0267236Y0065115D01*
X0267125Y0065056D01*
X0267016Y0064994D01*
X0266909Y0064928D01*
X0266804Y0064859D01*
X0266701Y0064787D01*
X0266600Y0064712D01*
X0266502Y0064633D01*
X0266407Y0064551D01*
X0266314Y0064467D01*
X0266224Y0064379D01*
X0266136Y0064289D01*
X0266052Y0064196D01*
X0265970Y0064101D01*
X0265891Y0064003D01*
X0265816Y0063902D01*
X0265744Y0063799D01*
X0265675Y0063694D01*
X0265609Y0063587D01*
X0265547Y0063478D01*
X0265488Y0063367D01*
X0265433Y0063254D01*
X0265381Y0063140D01*
X0265333Y0063023D01*
X0265288Y0062906D01*
X0265248Y0062787D01*
X0265211Y0062667D01*
X0265178Y0062546D01*
X0265148Y0062424D01*
X0265123Y0062301D01*
X0265101Y0062177D01*
X0265084Y0062052D01*
X0265070Y0061927D01*
X0265060Y0061802D01*
X0265054Y0061677D01*
X0265052Y0061551D01*
X0257552Y0061551D01*
X0257552Y0091551D01*
X0346375Y0092654D02*
X0346375Y0082654D01*
X0355375Y0082654D01*
X0356375Y0083654D01*
X0357375Y0082654D01*
X0365375Y0082654D01*
X0366375Y0083654D01*
X0367375Y0082654D01*
X0375375Y0082654D01*
X0376375Y0083654D01*
X0377375Y0082654D01*
X0385375Y0082654D01*
X0386375Y0083654D01*
X0387375Y0082654D01*
X0395375Y0082654D01*
X0396375Y0083654D01*
X0397375Y0082654D01*
X0406375Y0082654D01*
X0406375Y0092654D01*
X0397375Y0092654D01*
X0396375Y0091654D01*
X0395375Y0092654D01*
X0387375Y0092654D01*
X0386375Y0091654D01*
X0385375Y0092654D01*
X0377375Y0092654D01*
X0376375Y0091654D01*
X0375375Y0092654D01*
X0367375Y0092654D01*
X0366375Y0091654D01*
X0365375Y0092654D01*
X0357375Y0092654D01*
X0356375Y0091654D01*
X0355375Y0092654D01*
X0346375Y0092654D01*
X0141804Y0267106D02*
X0141804Y0268106D01*
X0141304Y0268606D01*
X0141304Y0277606D01*
X0141804Y0278106D01*
X0141804Y0279106D01*
X0141802Y0279166D01*
X0141797Y0279227D01*
X0141788Y0279286D01*
X0141775Y0279345D01*
X0141759Y0279404D01*
X0141739Y0279461D01*
X0141716Y0279516D01*
X0141689Y0279571D01*
X0141660Y0279623D01*
X0141627Y0279674D01*
X0141591Y0279723D01*
X0141553Y0279769D01*
X0141511Y0279813D01*
X0141467Y0279855D01*
X0141421Y0279893D01*
X0141372Y0279929D01*
X0141321Y0279962D01*
X0141269Y0279991D01*
X0141214Y0280018D01*
X0141159Y0280041D01*
X0141102Y0280061D01*
X0141043Y0280077D01*
X0140984Y0280090D01*
X0140925Y0280099D01*
X0140864Y0280104D01*
X0140804Y0280106D01*
X0135804Y0280106D02*
X0135744Y0280104D01*
X0135683Y0280099D01*
X0135624Y0280090D01*
X0135565Y0280077D01*
X0135506Y0280061D01*
X0135449Y0280041D01*
X0135394Y0280018D01*
X0135339Y0279991D01*
X0135287Y0279962D01*
X0135236Y0279929D01*
X0135187Y0279893D01*
X0135141Y0279855D01*
X0135097Y0279813D01*
X0135055Y0279769D01*
X0135017Y0279723D01*
X0134981Y0279674D01*
X0134948Y0279623D01*
X0134919Y0279571D01*
X0134892Y0279516D01*
X0134869Y0279461D01*
X0134849Y0279404D01*
X0134833Y0279345D01*
X0134820Y0279286D01*
X0134811Y0279227D01*
X0134806Y0279166D01*
X0134804Y0279106D01*
X0134804Y0278106D01*
X0135304Y0277606D01*
X0135304Y0268606D01*
X0134804Y0268106D01*
X0134804Y0267106D01*
X0134806Y0267046D01*
X0134811Y0266985D01*
X0134820Y0266926D01*
X0134833Y0266867D01*
X0134849Y0266808D01*
X0134869Y0266751D01*
X0134892Y0266696D01*
X0134919Y0266641D01*
X0134948Y0266589D01*
X0134981Y0266538D01*
X0135017Y0266489D01*
X0135055Y0266443D01*
X0135097Y0266399D01*
X0135141Y0266357D01*
X0135187Y0266319D01*
X0135236Y0266283D01*
X0135287Y0266250D01*
X0135339Y0266221D01*
X0135394Y0266194D01*
X0135449Y0266171D01*
X0135506Y0266151D01*
X0135565Y0266135D01*
X0135624Y0266122D01*
X0135683Y0266113D01*
X0135744Y0266108D01*
X0135804Y0266106D01*
X0140804Y0266106D02*
X0140864Y0266108D01*
X0140925Y0266113D01*
X0140984Y0266122D01*
X0141043Y0266135D01*
X0141102Y0266151D01*
X0141159Y0266171D01*
X0141214Y0266194D01*
X0141269Y0266221D01*
X0141321Y0266250D01*
X0141372Y0266283D01*
X0141421Y0266319D01*
X0141467Y0266357D01*
X0141511Y0266399D01*
X0141553Y0266443D01*
X0141591Y0266489D01*
X0141627Y0266538D01*
X0141660Y0266589D01*
X0141689Y0266641D01*
X0141716Y0266696D01*
X0141739Y0266751D01*
X0141759Y0266808D01*
X0141775Y0266867D01*
X0141788Y0266926D01*
X0141797Y0266985D01*
X0141802Y0267046D01*
X0141804Y0267106D01*
X0127099Y0279724D02*
X0126099Y0279724D01*
X0125599Y0280224D01*
X0116599Y0280224D01*
X0116099Y0279724D01*
X0115099Y0279724D01*
X0115039Y0279726D01*
X0114978Y0279731D01*
X0114919Y0279740D01*
X0114860Y0279753D01*
X0114801Y0279769D01*
X0114744Y0279789D01*
X0114689Y0279812D01*
X0114634Y0279839D01*
X0114582Y0279868D01*
X0114531Y0279901D01*
X0114482Y0279937D01*
X0114436Y0279975D01*
X0114392Y0280017D01*
X0114350Y0280061D01*
X0114312Y0280107D01*
X0114276Y0280156D01*
X0114243Y0280207D01*
X0114214Y0280259D01*
X0114187Y0280314D01*
X0114164Y0280369D01*
X0114144Y0280426D01*
X0114128Y0280485D01*
X0114115Y0280544D01*
X0114106Y0280603D01*
X0114101Y0280664D01*
X0114099Y0280724D01*
X0114099Y0285724D02*
X0114101Y0285784D01*
X0114106Y0285845D01*
X0114115Y0285904D01*
X0114128Y0285963D01*
X0114144Y0286022D01*
X0114164Y0286079D01*
X0114187Y0286134D01*
X0114214Y0286189D01*
X0114243Y0286241D01*
X0114276Y0286292D01*
X0114312Y0286341D01*
X0114350Y0286387D01*
X0114392Y0286431D01*
X0114436Y0286473D01*
X0114482Y0286511D01*
X0114531Y0286547D01*
X0114582Y0286580D01*
X0114634Y0286609D01*
X0114689Y0286636D01*
X0114744Y0286659D01*
X0114801Y0286679D01*
X0114860Y0286695D01*
X0114919Y0286708D01*
X0114978Y0286717D01*
X0115039Y0286722D01*
X0115099Y0286724D01*
X0116099Y0286724D01*
X0116599Y0286224D01*
X0125599Y0286224D01*
X0126099Y0286724D01*
X0127099Y0286724D01*
X0127159Y0286722D01*
X0127220Y0286717D01*
X0127279Y0286708D01*
X0127338Y0286695D01*
X0127397Y0286679D01*
X0127454Y0286659D01*
X0127509Y0286636D01*
X0127564Y0286609D01*
X0127616Y0286580D01*
X0127667Y0286547D01*
X0127716Y0286511D01*
X0127762Y0286473D01*
X0127806Y0286431D01*
X0127848Y0286387D01*
X0127886Y0286341D01*
X0127922Y0286292D01*
X0127955Y0286241D01*
X0127984Y0286189D01*
X0128011Y0286134D01*
X0128034Y0286079D01*
X0128054Y0286022D01*
X0128070Y0285963D01*
X0128083Y0285904D01*
X0128092Y0285845D01*
X0128097Y0285784D01*
X0128099Y0285724D01*
X0128099Y0280724D02*
X0128097Y0280664D01*
X0128092Y0280603D01*
X0128083Y0280544D01*
X0128070Y0280485D01*
X0128054Y0280426D01*
X0128034Y0280369D01*
X0128011Y0280314D01*
X0127984Y0280259D01*
X0127955Y0280207D01*
X0127922Y0280156D01*
X0127886Y0280107D01*
X0127848Y0280061D01*
X0127806Y0280017D01*
X0127762Y0279975D01*
X0127716Y0279937D01*
X0127667Y0279901D01*
X0127616Y0279868D01*
X0127564Y0279839D01*
X0127509Y0279812D01*
X0127454Y0279789D01*
X0127397Y0279769D01*
X0127338Y0279753D01*
X0127279Y0279740D01*
X0127220Y0279731D01*
X0127159Y0279726D01*
X0127099Y0279724D01*
X0098438Y0279488D02*
X0097438Y0279488D01*
X0096938Y0279988D01*
X0087938Y0279988D01*
X0087438Y0279488D01*
X0086438Y0279488D01*
X0086378Y0279490D01*
X0086317Y0279495D01*
X0086258Y0279504D01*
X0086199Y0279517D01*
X0086140Y0279533D01*
X0086083Y0279553D01*
X0086028Y0279576D01*
X0085973Y0279603D01*
X0085921Y0279632D01*
X0085870Y0279665D01*
X0085821Y0279701D01*
X0085775Y0279739D01*
X0085731Y0279781D01*
X0085689Y0279825D01*
X0085651Y0279871D01*
X0085615Y0279920D01*
X0085582Y0279971D01*
X0085553Y0280023D01*
X0085526Y0280078D01*
X0085503Y0280133D01*
X0085483Y0280190D01*
X0085467Y0280249D01*
X0085454Y0280308D01*
X0085445Y0280367D01*
X0085440Y0280428D01*
X0085438Y0280488D01*
X0085438Y0285488D02*
X0085440Y0285548D01*
X0085445Y0285609D01*
X0085454Y0285668D01*
X0085467Y0285727D01*
X0085483Y0285786D01*
X0085503Y0285843D01*
X0085526Y0285898D01*
X0085553Y0285953D01*
X0085582Y0286005D01*
X0085615Y0286056D01*
X0085651Y0286105D01*
X0085689Y0286151D01*
X0085731Y0286195D01*
X0085775Y0286237D01*
X0085821Y0286275D01*
X0085870Y0286311D01*
X0085921Y0286344D01*
X0085973Y0286373D01*
X0086028Y0286400D01*
X0086083Y0286423D01*
X0086140Y0286443D01*
X0086199Y0286459D01*
X0086258Y0286472D01*
X0086317Y0286481D01*
X0086378Y0286486D01*
X0086438Y0286488D01*
X0087438Y0286488D01*
X0087938Y0285988D01*
X0096938Y0285988D01*
X0097438Y0286488D01*
X0098438Y0286488D01*
X0098498Y0286486D01*
X0098559Y0286481D01*
X0098618Y0286472D01*
X0098677Y0286459D01*
X0098736Y0286443D01*
X0098793Y0286423D01*
X0098848Y0286400D01*
X0098903Y0286373D01*
X0098955Y0286344D01*
X0099006Y0286311D01*
X0099055Y0286275D01*
X0099101Y0286237D01*
X0099145Y0286195D01*
X0099187Y0286151D01*
X0099225Y0286105D01*
X0099261Y0286056D01*
X0099294Y0286005D01*
X0099323Y0285953D01*
X0099350Y0285898D01*
X0099373Y0285843D01*
X0099393Y0285786D01*
X0099409Y0285727D01*
X0099422Y0285668D01*
X0099431Y0285609D01*
X0099436Y0285548D01*
X0099438Y0285488D01*
X0099438Y0280488D02*
X0099436Y0280428D01*
X0099431Y0280367D01*
X0099422Y0280308D01*
X0099409Y0280249D01*
X0099393Y0280190D01*
X0099373Y0280133D01*
X0099350Y0280078D01*
X0099323Y0280023D01*
X0099294Y0279971D01*
X0099261Y0279920D01*
X0099225Y0279871D01*
X0099187Y0279825D01*
X0099145Y0279781D01*
X0099101Y0279739D01*
X0099055Y0279701D01*
X0099006Y0279665D01*
X0098955Y0279632D01*
X0098903Y0279603D01*
X0098848Y0279576D01*
X0098793Y0279553D01*
X0098736Y0279533D01*
X0098677Y0279517D01*
X0098618Y0279504D01*
X0098559Y0279495D01*
X0098498Y0279490D01*
X0098438Y0279488D01*
X0113296Y0306382D02*
X0214296Y0306382D01*
X0214383Y0306384D01*
X0214470Y0306390D01*
X0214557Y0306399D01*
X0214643Y0306412D01*
X0214729Y0306429D01*
X0214814Y0306450D01*
X0214897Y0306475D01*
X0214980Y0306503D01*
X0215061Y0306534D01*
X0215141Y0306569D01*
X0215219Y0306608D01*
X0215296Y0306650D01*
X0215371Y0306695D01*
X0215443Y0306744D01*
X0215514Y0306795D01*
X0215582Y0306850D01*
X0215647Y0306907D01*
X0215710Y0306968D01*
X0215771Y0307031D01*
X0215828Y0307096D01*
X0215883Y0307164D01*
X0215934Y0307235D01*
X0215983Y0307307D01*
X0216028Y0307382D01*
X0216070Y0307459D01*
X0216109Y0307537D01*
X0216144Y0307617D01*
X0216175Y0307698D01*
X0216203Y0307781D01*
X0216228Y0307864D01*
X0216249Y0307949D01*
X0216266Y0308035D01*
X0216279Y0308121D01*
X0216288Y0308208D01*
X0216294Y0308295D01*
X0216296Y0308382D01*
X0216296Y0348382D01*
X0216294Y0348469D01*
X0216288Y0348556D01*
X0216279Y0348643D01*
X0216266Y0348729D01*
X0216249Y0348815D01*
X0216228Y0348900D01*
X0216203Y0348983D01*
X0216175Y0349066D01*
X0216144Y0349147D01*
X0216109Y0349227D01*
X0216070Y0349305D01*
X0216028Y0349382D01*
X0215983Y0349457D01*
X0215934Y0349529D01*
X0215883Y0349600D01*
X0215828Y0349668D01*
X0215771Y0349733D01*
X0215710Y0349796D01*
X0215647Y0349857D01*
X0215582Y0349914D01*
X0215514Y0349969D01*
X0215443Y0350020D01*
X0215371Y0350069D01*
X0215296Y0350114D01*
X0215219Y0350156D01*
X0215141Y0350195D01*
X0215061Y0350230D01*
X0214980Y0350261D01*
X0214897Y0350289D01*
X0214814Y0350314D01*
X0214729Y0350335D01*
X0214643Y0350352D01*
X0214557Y0350365D01*
X0214470Y0350374D01*
X0214383Y0350380D01*
X0214296Y0350382D01*
X0113296Y0350382D01*
X0113209Y0350380D01*
X0113122Y0350374D01*
X0113035Y0350365D01*
X0112949Y0350352D01*
X0112863Y0350335D01*
X0112778Y0350314D01*
X0112695Y0350289D01*
X0112612Y0350261D01*
X0112531Y0350230D01*
X0112451Y0350195D01*
X0112373Y0350156D01*
X0112296Y0350114D01*
X0112221Y0350069D01*
X0112149Y0350020D01*
X0112078Y0349969D01*
X0112010Y0349914D01*
X0111945Y0349857D01*
X0111882Y0349796D01*
X0111821Y0349733D01*
X0111764Y0349668D01*
X0111709Y0349600D01*
X0111658Y0349529D01*
X0111609Y0349457D01*
X0111564Y0349382D01*
X0111522Y0349305D01*
X0111483Y0349227D01*
X0111448Y0349147D01*
X0111417Y0349066D01*
X0111389Y0348983D01*
X0111364Y0348900D01*
X0111343Y0348815D01*
X0111326Y0348729D01*
X0111313Y0348643D01*
X0111304Y0348556D01*
X0111298Y0348469D01*
X0111296Y0348382D01*
X0111296Y0308382D01*
X0111298Y0308295D01*
X0111304Y0308208D01*
X0111313Y0308121D01*
X0111326Y0308035D01*
X0111343Y0307949D01*
X0111364Y0307864D01*
X0111389Y0307781D01*
X0111417Y0307698D01*
X0111448Y0307617D01*
X0111483Y0307537D01*
X0111522Y0307459D01*
X0111564Y0307382D01*
X0111609Y0307307D01*
X0111658Y0307235D01*
X0111709Y0307164D01*
X0111764Y0307096D01*
X0111821Y0307031D01*
X0111882Y0306968D01*
X0111945Y0306907D01*
X0112010Y0306850D01*
X0112078Y0306795D01*
X0112149Y0306744D01*
X0112221Y0306695D01*
X0112296Y0306650D01*
X0112373Y0306608D01*
X0112451Y0306569D01*
X0112531Y0306534D01*
X0112612Y0306503D01*
X0112695Y0306475D01*
X0112778Y0306450D01*
X0112863Y0306429D01*
X0112949Y0306412D01*
X0113035Y0306399D01*
X0113122Y0306390D01*
X0113209Y0306384D01*
X0113296Y0306382D01*
X0125796Y0328382D02*
X0133796Y0328382D01*
X0137296Y0328382D02*
X0201796Y0328382D01*
X0188583Y0301350D02*
X0189083Y0300850D01*
X0215083Y0300850D01*
X0215583Y0301350D01*
X0218083Y0301350D01*
X0218143Y0301348D01*
X0218204Y0301343D01*
X0218263Y0301334D01*
X0218322Y0301321D01*
X0218381Y0301305D01*
X0218438Y0301285D01*
X0218493Y0301262D01*
X0218548Y0301235D01*
X0218600Y0301206D01*
X0218651Y0301173D01*
X0218700Y0301137D01*
X0218746Y0301099D01*
X0218790Y0301057D01*
X0218832Y0301013D01*
X0218870Y0300967D01*
X0218906Y0300918D01*
X0218939Y0300867D01*
X0218968Y0300815D01*
X0218995Y0300760D01*
X0219018Y0300705D01*
X0219038Y0300648D01*
X0219054Y0300589D01*
X0219067Y0300530D01*
X0219076Y0300471D01*
X0219081Y0300410D01*
X0219083Y0300350D01*
X0219083Y0290350D02*
X0219081Y0290290D01*
X0219076Y0290229D01*
X0219067Y0290170D01*
X0219054Y0290111D01*
X0219038Y0290052D01*
X0219018Y0289995D01*
X0218995Y0289940D01*
X0218968Y0289885D01*
X0218939Y0289833D01*
X0218906Y0289782D01*
X0218870Y0289733D01*
X0218832Y0289687D01*
X0218790Y0289643D01*
X0218746Y0289601D01*
X0218700Y0289563D01*
X0218651Y0289527D01*
X0218600Y0289494D01*
X0218548Y0289465D01*
X0218493Y0289438D01*
X0218438Y0289415D01*
X0218381Y0289395D01*
X0218322Y0289379D01*
X0218263Y0289366D01*
X0218204Y0289357D01*
X0218143Y0289352D01*
X0218083Y0289350D01*
X0215583Y0289350D01*
X0215083Y0289850D01*
X0189083Y0289850D01*
X0188583Y0289350D01*
X0186083Y0289350D01*
X0186023Y0289352D01*
X0185962Y0289357D01*
X0185903Y0289366D01*
X0185844Y0289379D01*
X0185785Y0289395D01*
X0185728Y0289415D01*
X0185673Y0289438D01*
X0185618Y0289465D01*
X0185566Y0289494D01*
X0185515Y0289527D01*
X0185466Y0289563D01*
X0185420Y0289601D01*
X0185376Y0289643D01*
X0185334Y0289687D01*
X0185296Y0289733D01*
X0185260Y0289782D01*
X0185227Y0289833D01*
X0185198Y0289885D01*
X0185171Y0289940D01*
X0185148Y0289995D01*
X0185128Y0290052D01*
X0185112Y0290111D01*
X0185099Y0290170D01*
X0185090Y0290229D01*
X0185085Y0290290D01*
X0185083Y0290350D01*
X0185083Y0300350D02*
X0185085Y0300410D01*
X0185090Y0300471D01*
X0185099Y0300530D01*
X0185112Y0300589D01*
X0185128Y0300648D01*
X0185148Y0300705D01*
X0185171Y0300760D01*
X0185198Y0300815D01*
X0185227Y0300867D01*
X0185260Y0300918D01*
X0185296Y0300967D01*
X0185334Y0301013D01*
X0185376Y0301057D01*
X0185420Y0301099D01*
X0185466Y0301137D01*
X0185515Y0301173D01*
X0185566Y0301206D01*
X0185618Y0301235D01*
X0185673Y0301262D01*
X0185728Y0301285D01*
X0185785Y0301305D01*
X0185844Y0301321D01*
X0185903Y0301334D01*
X0185962Y0301343D01*
X0186023Y0301348D01*
X0186083Y0301350D01*
X0188583Y0301350D01*
D11*
X0137296Y0320882D02*
X0137296Y0328382D01*
X0137296Y0335882D01*
X0133796Y0335882D02*
X0133796Y0328382D01*
X0133796Y0320882D01*
D12*
X0158776Y0286098D02*
X0189879Y0286098D01*
X0198934Y0277043D01*
X0198934Y0269957D01*
X0198934Y0262083D02*
X0198934Y0254996D01*
X0189879Y0245941D01*
X0158776Y0245941D01*
X0158776Y0262083D01*
X0158776Y0269957D02*
X0158776Y0286098D01*
X0159761Y0262083D02*
X0159862Y0261618D01*
X0159976Y0261156D01*
X0160100Y0260696D01*
X0160236Y0260240D01*
X0160382Y0259787D01*
X0160540Y0259338D01*
X0160709Y0258892D01*
X0160888Y0258451D01*
X0161078Y0258015D01*
X0161279Y0257583D01*
X0161490Y0257157D01*
X0161712Y0256735D01*
X0161944Y0256320D01*
X0162185Y0255910D01*
X0162437Y0255506D01*
X0162699Y0255108D01*
X0162970Y0254717D01*
X0163251Y0254332D01*
X0163541Y0253955D01*
X0163840Y0253584D01*
X0164148Y0253221D01*
X0164465Y0252866D01*
X0164791Y0252519D01*
X0165124Y0252179D01*
X0165466Y0251848D01*
X0165816Y0251526D01*
X0166174Y0251211D01*
X0166540Y0250906D01*
X0166912Y0250610D01*
X0167292Y0250323D01*
X0167679Y0250045D01*
X0168072Y0249777D01*
X0168472Y0249519D01*
X0168878Y0249270D01*
X0169290Y0249032D01*
X0169708Y0248803D01*
X0170131Y0248585D01*
X0170559Y0248377D01*
X0170992Y0248180D01*
X0171430Y0247993D01*
X0171873Y0247817D01*
X0172319Y0247652D01*
X0172769Y0247498D01*
X0173224Y0247355D01*
X0173681Y0247223D01*
X0174141Y0247102D01*
X0174605Y0246993D01*
X0175071Y0246895D01*
X0175539Y0246808D01*
X0176009Y0246733D01*
X0176481Y0246669D01*
X0176954Y0246617D01*
X0177428Y0246576D01*
X0177903Y0246547D01*
X0178379Y0246530D01*
X0178855Y0246524D01*
X0179331Y0246530D01*
X0179807Y0246547D01*
X0180282Y0246576D01*
X0180756Y0246617D01*
X0181229Y0246669D01*
X0181701Y0246733D01*
X0182171Y0246808D01*
X0182639Y0246895D01*
X0183105Y0246993D01*
X0183569Y0247102D01*
X0184029Y0247223D01*
X0184486Y0247355D01*
X0184941Y0247498D01*
X0185391Y0247652D01*
X0185837Y0247817D01*
X0186280Y0247993D01*
X0186718Y0248180D01*
X0187151Y0248377D01*
X0187579Y0248585D01*
X0188002Y0248803D01*
X0188420Y0249032D01*
X0188832Y0249270D01*
X0189238Y0249519D01*
X0189638Y0249777D01*
X0190031Y0250045D01*
X0190418Y0250323D01*
X0190798Y0250610D01*
X0191170Y0250906D01*
X0191536Y0251211D01*
X0191894Y0251526D01*
X0192244Y0251848D01*
X0192586Y0252179D01*
X0192919Y0252519D01*
X0193245Y0252866D01*
X0193562Y0253221D01*
X0193870Y0253584D01*
X0194169Y0253955D01*
X0194459Y0254332D01*
X0194740Y0254717D01*
X0195011Y0255108D01*
X0195273Y0255506D01*
X0195525Y0255910D01*
X0195766Y0256320D01*
X0195998Y0256735D01*
X0196220Y0257157D01*
X0196431Y0257583D01*
X0196632Y0258015D01*
X0196822Y0258451D01*
X0197001Y0258892D01*
X0197170Y0259338D01*
X0197328Y0259787D01*
X0197474Y0260240D01*
X0197610Y0260696D01*
X0197734Y0261156D01*
X0197848Y0261618D01*
X0197949Y0262083D01*
X0200666Y0254012D02*
X0200668Y0254153D01*
X0200674Y0254294D01*
X0200684Y0254434D01*
X0200698Y0254574D01*
X0200716Y0254714D01*
X0200737Y0254853D01*
X0200763Y0254992D01*
X0200792Y0255130D01*
X0200826Y0255266D01*
X0200863Y0255402D01*
X0200904Y0255537D01*
X0200949Y0255671D01*
X0200998Y0255803D01*
X0201050Y0255934D01*
X0201106Y0256063D01*
X0201166Y0256190D01*
X0201229Y0256316D01*
X0201295Y0256440D01*
X0201366Y0256563D01*
X0201439Y0256683D01*
X0201516Y0256801D01*
X0201596Y0256917D01*
X0201680Y0257030D01*
X0201766Y0257141D01*
X0201856Y0257250D01*
X0201949Y0257356D01*
X0202044Y0257459D01*
X0202143Y0257560D01*
X0202244Y0257658D01*
X0202348Y0257753D01*
X0202455Y0257845D01*
X0202564Y0257934D01*
X0202676Y0258019D01*
X0202790Y0258102D01*
X0202906Y0258182D01*
X0203025Y0258258D01*
X0203146Y0258330D01*
X0203268Y0258400D01*
X0203393Y0258465D01*
X0203519Y0258528D01*
X0203647Y0258586D01*
X0203777Y0258641D01*
X0203908Y0258693D01*
X0204041Y0258740D01*
X0204175Y0258784D01*
X0204310Y0258825D01*
X0204446Y0258861D01*
X0204583Y0258893D01*
X0204721Y0258922D01*
X0204859Y0258947D01*
X0204999Y0258967D01*
X0205139Y0258984D01*
X0205279Y0258997D01*
X0205420Y0259006D01*
X0205560Y0259011D01*
X0205701Y0259012D01*
X0205842Y0259009D01*
X0205983Y0259002D01*
X0206123Y0258991D01*
X0206263Y0258976D01*
X0206403Y0258957D01*
X0206542Y0258935D01*
X0206680Y0258908D01*
X0206818Y0258878D01*
X0206954Y0258843D01*
X0207090Y0258805D01*
X0207224Y0258763D01*
X0207358Y0258717D01*
X0207490Y0258668D01*
X0207620Y0258614D01*
X0207749Y0258557D01*
X0207876Y0258497D01*
X0208002Y0258433D01*
X0208125Y0258365D01*
X0208247Y0258294D01*
X0208367Y0258220D01*
X0208484Y0258142D01*
X0208599Y0258061D01*
X0208712Y0257977D01*
X0208823Y0257890D01*
X0208931Y0257799D01*
X0209036Y0257706D01*
X0209139Y0257609D01*
X0209239Y0257510D01*
X0209336Y0257408D01*
X0209430Y0257303D01*
X0209521Y0257196D01*
X0209609Y0257086D01*
X0209694Y0256974D01*
X0209776Y0256859D01*
X0209855Y0256742D01*
X0209930Y0256623D01*
X0210002Y0256502D01*
X0210070Y0256379D01*
X0210135Y0256254D01*
X0210197Y0256127D01*
X0210254Y0255998D01*
X0210309Y0255868D01*
X0210359Y0255737D01*
X0210406Y0255604D01*
X0210449Y0255470D01*
X0210488Y0255334D01*
X0210523Y0255198D01*
X0210555Y0255061D01*
X0210582Y0254923D01*
X0210606Y0254784D01*
X0210626Y0254644D01*
X0210642Y0254504D01*
X0210654Y0254364D01*
X0210662Y0254223D01*
X0210666Y0254082D01*
X0210666Y0253942D01*
X0210662Y0253801D01*
X0210654Y0253660D01*
X0210642Y0253520D01*
X0210626Y0253380D01*
X0210606Y0253240D01*
X0210582Y0253101D01*
X0210555Y0252963D01*
X0210523Y0252826D01*
X0210488Y0252690D01*
X0210449Y0252554D01*
X0210406Y0252420D01*
X0210359Y0252287D01*
X0210309Y0252156D01*
X0210254Y0252026D01*
X0210197Y0251897D01*
X0210135Y0251770D01*
X0210070Y0251645D01*
X0210002Y0251522D01*
X0209930Y0251401D01*
X0209855Y0251282D01*
X0209776Y0251165D01*
X0209694Y0251050D01*
X0209609Y0250938D01*
X0209521Y0250828D01*
X0209430Y0250721D01*
X0209336Y0250616D01*
X0209239Y0250514D01*
X0209139Y0250415D01*
X0209036Y0250318D01*
X0208931Y0250225D01*
X0208823Y0250134D01*
X0208712Y0250047D01*
X0208599Y0249963D01*
X0208484Y0249882D01*
X0208367Y0249804D01*
X0208247Y0249730D01*
X0208125Y0249659D01*
X0208002Y0249591D01*
X0207876Y0249527D01*
X0207749Y0249467D01*
X0207620Y0249410D01*
X0207490Y0249356D01*
X0207358Y0249307D01*
X0207224Y0249261D01*
X0207090Y0249219D01*
X0206954Y0249181D01*
X0206818Y0249146D01*
X0206680Y0249116D01*
X0206542Y0249089D01*
X0206403Y0249067D01*
X0206263Y0249048D01*
X0206123Y0249033D01*
X0205983Y0249022D01*
X0205842Y0249015D01*
X0205701Y0249012D01*
X0205560Y0249013D01*
X0205420Y0249018D01*
X0205279Y0249027D01*
X0205139Y0249040D01*
X0204999Y0249057D01*
X0204859Y0249077D01*
X0204721Y0249102D01*
X0204583Y0249131D01*
X0204446Y0249163D01*
X0204310Y0249199D01*
X0204175Y0249240D01*
X0204041Y0249284D01*
X0203908Y0249331D01*
X0203777Y0249383D01*
X0203647Y0249438D01*
X0203519Y0249496D01*
X0203393Y0249559D01*
X0203268Y0249624D01*
X0203146Y0249694D01*
X0203025Y0249766D01*
X0202906Y0249842D01*
X0202790Y0249922D01*
X0202676Y0250005D01*
X0202564Y0250090D01*
X0202455Y0250179D01*
X0202348Y0250271D01*
X0202244Y0250366D01*
X0202143Y0250464D01*
X0202044Y0250565D01*
X0201949Y0250668D01*
X0201856Y0250774D01*
X0201766Y0250883D01*
X0201680Y0250994D01*
X0201596Y0251107D01*
X0201516Y0251223D01*
X0201439Y0251341D01*
X0201366Y0251461D01*
X0201295Y0251584D01*
X0201229Y0251708D01*
X0201166Y0251834D01*
X0201106Y0251961D01*
X0201050Y0252090D01*
X0200998Y0252221D01*
X0200949Y0252353D01*
X0200904Y0252487D01*
X0200863Y0252622D01*
X0200826Y0252758D01*
X0200792Y0252894D01*
X0200763Y0253032D01*
X0200737Y0253171D01*
X0200716Y0253310D01*
X0200698Y0253450D01*
X0200684Y0253590D01*
X0200674Y0253730D01*
X0200668Y0253871D01*
X0200666Y0254012D01*
X0197949Y0269957D02*
X0197848Y0270422D01*
X0197734Y0270884D01*
X0197610Y0271344D01*
X0197474Y0271800D01*
X0197328Y0272253D01*
X0197170Y0272702D01*
X0197001Y0273148D01*
X0196822Y0273589D01*
X0196632Y0274025D01*
X0196431Y0274457D01*
X0196220Y0274883D01*
X0195998Y0275305D01*
X0195766Y0275720D01*
X0195525Y0276130D01*
X0195273Y0276534D01*
X0195011Y0276932D01*
X0194740Y0277323D01*
X0194459Y0277708D01*
X0194169Y0278085D01*
X0193870Y0278456D01*
X0193562Y0278819D01*
X0193245Y0279174D01*
X0192919Y0279521D01*
X0192586Y0279861D01*
X0192244Y0280192D01*
X0191894Y0280514D01*
X0191536Y0280829D01*
X0191170Y0281134D01*
X0190798Y0281430D01*
X0190418Y0281717D01*
X0190031Y0281995D01*
X0189638Y0282263D01*
X0189238Y0282521D01*
X0188832Y0282770D01*
X0188420Y0283008D01*
X0188002Y0283237D01*
X0187579Y0283455D01*
X0187151Y0283663D01*
X0186718Y0283860D01*
X0186280Y0284047D01*
X0185837Y0284223D01*
X0185391Y0284388D01*
X0184941Y0284542D01*
X0184486Y0284685D01*
X0184029Y0284817D01*
X0183569Y0284938D01*
X0183105Y0285047D01*
X0182639Y0285145D01*
X0182171Y0285232D01*
X0181701Y0285307D01*
X0181229Y0285371D01*
X0180756Y0285423D01*
X0180282Y0285464D01*
X0179807Y0285493D01*
X0179331Y0285510D01*
X0178855Y0285516D01*
X0178379Y0285510D01*
X0177903Y0285493D01*
X0177428Y0285464D01*
X0176954Y0285423D01*
X0176481Y0285371D01*
X0176009Y0285307D01*
X0175539Y0285232D01*
X0175071Y0285145D01*
X0174605Y0285047D01*
X0174141Y0284938D01*
X0173681Y0284817D01*
X0173224Y0284685D01*
X0172769Y0284542D01*
X0172319Y0284388D01*
X0171873Y0284223D01*
X0171430Y0284047D01*
X0170992Y0283860D01*
X0170559Y0283663D01*
X0170131Y0283455D01*
X0169708Y0283237D01*
X0169290Y0283008D01*
X0168878Y0282770D01*
X0168472Y0282521D01*
X0168072Y0282263D01*
X0167679Y0281995D01*
X0167292Y0281717D01*
X0166912Y0281430D01*
X0166540Y0281134D01*
X0166174Y0280829D01*
X0165816Y0280514D01*
X0165466Y0280192D01*
X0165124Y0279861D01*
X0164791Y0279521D01*
X0164465Y0279174D01*
X0164148Y0278819D01*
X0163840Y0278456D01*
X0163541Y0278085D01*
X0163251Y0277708D01*
X0162970Y0277323D01*
X0162699Y0276932D01*
X0162437Y0276534D01*
X0162185Y0276130D01*
X0161944Y0275720D01*
X0161712Y0275305D01*
X0161490Y0274883D01*
X0161279Y0274457D01*
X0161078Y0274025D01*
X0160888Y0273589D01*
X0160709Y0273148D01*
X0160540Y0272702D01*
X0160382Y0272253D01*
X0160236Y0271800D01*
X0160100Y0271344D01*
X0159976Y0270884D01*
X0159862Y0270422D01*
X0159761Y0269957D01*
X0315135Y0242220D02*
X0315135Y0235134D01*
X0315135Y0242220D02*
X0324190Y0251276D01*
X0355292Y0251276D01*
X0355292Y0235134D01*
X0355292Y0227260D02*
X0355292Y0211118D01*
X0324190Y0211118D01*
X0315135Y0220173D01*
X0315135Y0227260D01*
X0316119Y0227260D02*
X0316220Y0226795D01*
X0316334Y0226333D01*
X0316458Y0225873D01*
X0316594Y0225417D01*
X0316740Y0224964D01*
X0316898Y0224515D01*
X0317067Y0224069D01*
X0317246Y0223628D01*
X0317436Y0223192D01*
X0317637Y0222760D01*
X0317848Y0222334D01*
X0318070Y0221912D01*
X0318302Y0221497D01*
X0318543Y0221087D01*
X0318795Y0220683D01*
X0319057Y0220285D01*
X0319328Y0219894D01*
X0319609Y0219509D01*
X0319899Y0219132D01*
X0320198Y0218761D01*
X0320506Y0218398D01*
X0320823Y0218043D01*
X0321149Y0217696D01*
X0321482Y0217356D01*
X0321824Y0217025D01*
X0322174Y0216703D01*
X0322532Y0216388D01*
X0322898Y0216083D01*
X0323270Y0215787D01*
X0323650Y0215500D01*
X0324037Y0215222D01*
X0324430Y0214954D01*
X0324830Y0214696D01*
X0325236Y0214447D01*
X0325648Y0214209D01*
X0326066Y0213980D01*
X0326489Y0213762D01*
X0326917Y0213554D01*
X0327350Y0213357D01*
X0327788Y0213170D01*
X0328231Y0212994D01*
X0328677Y0212829D01*
X0329127Y0212675D01*
X0329582Y0212532D01*
X0330039Y0212400D01*
X0330499Y0212279D01*
X0330963Y0212170D01*
X0331429Y0212072D01*
X0331897Y0211985D01*
X0332367Y0211910D01*
X0332839Y0211846D01*
X0333312Y0211794D01*
X0333786Y0211753D01*
X0334261Y0211724D01*
X0334737Y0211707D01*
X0335213Y0211701D01*
X0335689Y0211707D01*
X0336165Y0211724D01*
X0336640Y0211753D01*
X0337114Y0211794D01*
X0337587Y0211846D01*
X0338059Y0211910D01*
X0338529Y0211985D01*
X0338997Y0212072D01*
X0339463Y0212170D01*
X0339927Y0212279D01*
X0340387Y0212400D01*
X0340844Y0212532D01*
X0341299Y0212675D01*
X0341749Y0212829D01*
X0342195Y0212994D01*
X0342638Y0213170D01*
X0343076Y0213357D01*
X0343509Y0213554D01*
X0343937Y0213762D01*
X0344360Y0213980D01*
X0344778Y0214209D01*
X0345190Y0214447D01*
X0345596Y0214696D01*
X0345996Y0214954D01*
X0346389Y0215222D01*
X0346776Y0215500D01*
X0347156Y0215787D01*
X0347528Y0216083D01*
X0347894Y0216388D01*
X0348252Y0216703D01*
X0348602Y0217025D01*
X0348944Y0217356D01*
X0349277Y0217696D01*
X0349603Y0218043D01*
X0349920Y0218398D01*
X0350228Y0218761D01*
X0350527Y0219132D01*
X0350817Y0219509D01*
X0351098Y0219894D01*
X0351369Y0220285D01*
X0351631Y0220683D01*
X0351883Y0221087D01*
X0352124Y0221497D01*
X0352356Y0221912D01*
X0352578Y0222334D01*
X0352789Y0222760D01*
X0352990Y0223192D01*
X0353180Y0223628D01*
X0353359Y0224069D01*
X0353528Y0224515D01*
X0353686Y0224964D01*
X0353832Y0225417D01*
X0353968Y0225873D01*
X0354092Y0226333D01*
X0354206Y0226795D01*
X0354307Y0227260D01*
X0354307Y0235134D02*
X0354206Y0235599D01*
X0354092Y0236061D01*
X0353968Y0236521D01*
X0353832Y0236977D01*
X0353686Y0237430D01*
X0353528Y0237879D01*
X0353359Y0238325D01*
X0353180Y0238766D01*
X0352990Y0239202D01*
X0352789Y0239634D01*
X0352578Y0240060D01*
X0352356Y0240482D01*
X0352124Y0240897D01*
X0351883Y0241307D01*
X0351631Y0241711D01*
X0351369Y0242109D01*
X0351098Y0242500D01*
X0350817Y0242885D01*
X0350527Y0243262D01*
X0350228Y0243633D01*
X0349920Y0243996D01*
X0349603Y0244351D01*
X0349277Y0244698D01*
X0348944Y0245038D01*
X0348602Y0245369D01*
X0348252Y0245691D01*
X0347894Y0246006D01*
X0347528Y0246311D01*
X0347156Y0246607D01*
X0346776Y0246894D01*
X0346389Y0247172D01*
X0345996Y0247440D01*
X0345596Y0247698D01*
X0345190Y0247947D01*
X0344778Y0248185D01*
X0344360Y0248414D01*
X0343937Y0248632D01*
X0343509Y0248840D01*
X0343076Y0249037D01*
X0342638Y0249224D01*
X0342195Y0249400D01*
X0341749Y0249565D01*
X0341299Y0249719D01*
X0340844Y0249862D01*
X0340387Y0249994D01*
X0339927Y0250115D01*
X0339463Y0250224D01*
X0338997Y0250322D01*
X0338529Y0250409D01*
X0338059Y0250484D01*
X0337587Y0250548D01*
X0337114Y0250600D01*
X0336640Y0250641D01*
X0336165Y0250670D01*
X0335689Y0250687D01*
X0335213Y0250693D01*
X0334737Y0250687D01*
X0334261Y0250670D01*
X0333786Y0250641D01*
X0333312Y0250600D01*
X0332839Y0250548D01*
X0332367Y0250484D01*
X0331897Y0250409D01*
X0331429Y0250322D01*
X0330963Y0250224D01*
X0330499Y0250115D01*
X0330039Y0249994D01*
X0329582Y0249862D01*
X0329127Y0249719D01*
X0328677Y0249565D01*
X0328231Y0249400D01*
X0327788Y0249224D01*
X0327350Y0249037D01*
X0326917Y0248840D01*
X0326489Y0248632D01*
X0326066Y0248414D01*
X0325648Y0248185D01*
X0325236Y0247947D01*
X0324830Y0247698D01*
X0324430Y0247440D01*
X0324037Y0247172D01*
X0323650Y0246894D01*
X0323270Y0246607D01*
X0322898Y0246311D01*
X0322532Y0246006D01*
X0322174Y0245691D01*
X0321824Y0245369D01*
X0321482Y0245038D01*
X0321149Y0244698D01*
X0320823Y0244351D01*
X0320506Y0243996D01*
X0320198Y0243633D01*
X0319899Y0243262D01*
X0319609Y0242885D01*
X0319328Y0242500D01*
X0319057Y0242109D01*
X0318795Y0241711D01*
X0318543Y0241307D01*
X0318302Y0240897D01*
X0318070Y0240482D01*
X0317848Y0240060D01*
X0317637Y0239634D01*
X0317436Y0239202D01*
X0317246Y0238766D01*
X0317067Y0238325D01*
X0316898Y0237879D01*
X0316740Y0237430D01*
X0316594Y0236977D01*
X0316458Y0236521D01*
X0316334Y0236061D01*
X0316220Y0235599D01*
X0316119Y0235134D01*
X0361968Y0262066D02*
X0361968Y0266670D01*
X0364270Y0266670D01*
X0365038Y0265903D01*
X0365038Y0264368D01*
X0364270Y0263601D01*
X0361968Y0263601D01*
X0363503Y0263601D02*
X0365038Y0262066D01*
X0366572Y0262066D02*
X0366572Y0265135D01*
X0368107Y0266670D01*
X0369642Y0265135D01*
X0369642Y0262066D01*
X0371176Y0262833D02*
X0371176Y0265903D01*
X0371944Y0266670D01*
X0373478Y0266670D01*
X0374245Y0265903D01*
X0375780Y0265903D02*
X0375780Y0262833D01*
X0378849Y0265903D01*
X0378849Y0262833D01*
X0378082Y0262066D01*
X0376547Y0262066D01*
X0375780Y0262833D01*
X0374245Y0262833D02*
X0373478Y0262066D01*
X0371944Y0262066D01*
X0371176Y0262833D01*
X0369642Y0264368D02*
X0366572Y0264368D01*
X0375780Y0265903D02*
X0376547Y0266670D01*
X0378082Y0266670D01*
X0378849Y0265903D01*
X0380384Y0265903D02*
X0381151Y0266670D01*
X0382686Y0266670D01*
X0383453Y0265903D01*
X0383453Y0265135D01*
X0380384Y0262066D01*
X0383453Y0262066D01*
X0381866Y0328943D02*
X0385703Y0328943D01*
X0386470Y0329711D01*
X0386470Y0331245D01*
X0385703Y0332013D01*
X0381866Y0332013D01*
X0382633Y0333547D02*
X0381866Y0334315D01*
X0381866Y0335849D01*
X0382633Y0336617D01*
X0381866Y0338151D02*
X0384168Y0338151D01*
X0383401Y0339686D01*
X0383401Y0340453D01*
X0384168Y0341220D01*
X0385703Y0341220D01*
X0386470Y0340453D01*
X0386470Y0338918D01*
X0385703Y0338151D01*
X0385703Y0336617D02*
X0384935Y0336617D01*
X0384168Y0335849D01*
X0384168Y0334315D01*
X0383401Y0333547D01*
X0382633Y0333547D01*
X0381099Y0335082D02*
X0387237Y0335082D01*
X0386470Y0335849D02*
X0385703Y0336617D01*
X0386470Y0335849D02*
X0386470Y0334315D01*
X0385703Y0333547D01*
X0381866Y0338151D02*
X0381866Y0341220D01*
X0338516Y0182418D02*
X0338516Y0177814D01*
X0340050Y0177814D02*
X0336981Y0177814D01*
X0335446Y0177814D02*
X0332377Y0177814D01*
X0332377Y0182418D01*
X0330842Y0181651D02*
X0330075Y0182418D01*
X0327773Y0182418D01*
X0327773Y0177814D01*
X0330075Y0177814D01*
X0330842Y0178581D01*
X0330842Y0181651D01*
X0326238Y0182418D02*
X0326238Y0177814D01*
X0323169Y0177814D02*
X0323169Y0182418D01*
X0324704Y0180883D01*
X0326238Y0182418D01*
X0336981Y0180883D02*
X0338516Y0182418D01*
X0359031Y0176279D02*
X0359031Y0173210D01*
X0363635Y0173210D01*
X0363635Y0176279D01*
X0361333Y0174745D02*
X0361333Y0173210D01*
X0360566Y0171676D02*
X0359799Y0171676D01*
X0359031Y0170908D01*
X0359031Y0169374D01*
X0359799Y0168606D01*
X0359031Y0165537D02*
X0363635Y0165537D01*
X0363635Y0164002D02*
X0363635Y0167072D01*
X0363635Y0168606D02*
X0360566Y0171676D01*
X0363635Y0171676D02*
X0363635Y0168606D01*
X0360566Y0164002D02*
X0359031Y0165537D01*
X0361333Y0162468D02*
X0361333Y0159398D01*
X0361333Y0157864D02*
X0362101Y0157096D01*
X0362101Y0154794D01*
X0362101Y0153260D02*
X0362868Y0153260D01*
X0363635Y0152493D01*
X0363635Y0150958D01*
X0362868Y0150191D01*
X0361333Y0150958D02*
X0361333Y0152493D01*
X0362101Y0153260D01*
X0363635Y0154794D02*
X0359031Y0154794D01*
X0359031Y0157096D01*
X0359799Y0157864D01*
X0361333Y0157864D01*
X0359799Y0153260D02*
X0359031Y0152493D01*
X0359031Y0150958D01*
X0359799Y0150191D01*
X0360566Y0150191D01*
X0361333Y0150958D01*
X0359031Y0148656D02*
X0359031Y0145587D01*
X0363635Y0145587D01*
X0363635Y0148656D01*
X0361333Y0147121D02*
X0361333Y0145587D01*
D13*
X0224209Y0268795D02*
X0224209Y0276906D01*
X0213973Y0276906D02*
X0213973Y0268795D01*
X0169308Y0290114D02*
X0161198Y0290114D01*
X0161198Y0300350D02*
X0169308Y0300350D01*
D14*
X0219091Y0270006D03*
D15*
X0168097Y0295232D03*
D16*
X0218501Y0056256D02*
X0104327Y0056256D01*
X0104327Y0105469D01*
X0218501Y0105469D01*
X0218501Y0056256D01*
X0255272Y0100272D02*
X0255272Y0140272D01*
X0282772Y0140272D01*
X0282772Y0100272D01*
X0255272Y0100272D01*
X0277772Y0102772D02*
X0277774Y0102842D01*
X0277780Y0102912D01*
X0277790Y0102981D01*
X0277803Y0103050D01*
X0277821Y0103118D01*
X0277842Y0103185D01*
X0277867Y0103250D01*
X0277896Y0103314D01*
X0277928Y0103377D01*
X0277964Y0103437D01*
X0278003Y0103495D01*
X0278045Y0103551D01*
X0278090Y0103605D01*
X0278138Y0103656D01*
X0278189Y0103704D01*
X0278243Y0103749D01*
X0278299Y0103791D01*
X0278357Y0103830D01*
X0278417Y0103866D01*
X0278480Y0103898D01*
X0278544Y0103927D01*
X0278609Y0103952D01*
X0278676Y0103973D01*
X0278744Y0103991D01*
X0278813Y0104004D01*
X0278882Y0104014D01*
X0278952Y0104020D01*
X0279022Y0104022D01*
X0279092Y0104020D01*
X0279162Y0104014D01*
X0279231Y0104004D01*
X0279300Y0103991D01*
X0279368Y0103973D01*
X0279435Y0103952D01*
X0279500Y0103927D01*
X0279564Y0103898D01*
X0279627Y0103866D01*
X0279687Y0103830D01*
X0279745Y0103791D01*
X0279801Y0103749D01*
X0279855Y0103704D01*
X0279906Y0103656D01*
X0279954Y0103605D01*
X0279999Y0103551D01*
X0280041Y0103495D01*
X0280080Y0103437D01*
X0280116Y0103377D01*
X0280148Y0103314D01*
X0280177Y0103250D01*
X0280202Y0103185D01*
X0280223Y0103118D01*
X0280241Y0103050D01*
X0280254Y0102981D01*
X0280264Y0102912D01*
X0280270Y0102842D01*
X0280272Y0102772D01*
X0280270Y0102702D01*
X0280264Y0102632D01*
X0280254Y0102563D01*
X0280241Y0102494D01*
X0280223Y0102426D01*
X0280202Y0102359D01*
X0280177Y0102294D01*
X0280148Y0102230D01*
X0280116Y0102167D01*
X0280080Y0102107D01*
X0280041Y0102049D01*
X0279999Y0101993D01*
X0279954Y0101939D01*
X0279906Y0101888D01*
X0279855Y0101840D01*
X0279801Y0101795D01*
X0279745Y0101753D01*
X0279687Y0101714D01*
X0279627Y0101678D01*
X0279564Y0101646D01*
X0279500Y0101617D01*
X0279435Y0101592D01*
X0279368Y0101571D01*
X0279300Y0101553D01*
X0279231Y0101540D01*
X0279162Y0101530D01*
X0279092Y0101524D01*
X0279022Y0101522D01*
X0278952Y0101524D01*
X0278882Y0101530D01*
X0278813Y0101540D01*
X0278744Y0101553D01*
X0278676Y0101571D01*
X0278609Y0101592D01*
X0278544Y0101617D01*
X0278480Y0101646D01*
X0278417Y0101678D01*
X0278357Y0101714D01*
X0278299Y0101753D01*
X0278243Y0101795D01*
X0278189Y0101840D01*
X0278138Y0101888D01*
X0278090Y0101939D01*
X0278045Y0101993D01*
X0278003Y0102049D01*
X0277964Y0102107D01*
X0277928Y0102167D01*
X0277896Y0102230D01*
X0277867Y0102294D01*
X0277842Y0102359D01*
X0277821Y0102426D01*
X0277803Y0102494D01*
X0277790Y0102563D01*
X0277780Y0102632D01*
X0277774Y0102702D01*
X0277772Y0102772D01*
X0315095Y0133520D02*
X0315095Y0197299D01*
X0409977Y0197299D01*
X0409977Y0133520D01*
X0315095Y0133520D01*
X0282772Y0146492D02*
X0282772Y0186492D01*
X0255272Y0186492D01*
X0255272Y0146492D01*
X0282772Y0146492D01*
X0277772Y0148992D02*
X0277774Y0149062D01*
X0277780Y0149132D01*
X0277790Y0149201D01*
X0277803Y0149270D01*
X0277821Y0149338D01*
X0277842Y0149405D01*
X0277867Y0149470D01*
X0277896Y0149534D01*
X0277928Y0149597D01*
X0277964Y0149657D01*
X0278003Y0149715D01*
X0278045Y0149771D01*
X0278090Y0149825D01*
X0278138Y0149876D01*
X0278189Y0149924D01*
X0278243Y0149969D01*
X0278299Y0150011D01*
X0278357Y0150050D01*
X0278417Y0150086D01*
X0278480Y0150118D01*
X0278544Y0150147D01*
X0278609Y0150172D01*
X0278676Y0150193D01*
X0278744Y0150211D01*
X0278813Y0150224D01*
X0278882Y0150234D01*
X0278952Y0150240D01*
X0279022Y0150242D01*
X0279092Y0150240D01*
X0279162Y0150234D01*
X0279231Y0150224D01*
X0279300Y0150211D01*
X0279368Y0150193D01*
X0279435Y0150172D01*
X0279500Y0150147D01*
X0279564Y0150118D01*
X0279627Y0150086D01*
X0279687Y0150050D01*
X0279745Y0150011D01*
X0279801Y0149969D01*
X0279855Y0149924D01*
X0279906Y0149876D01*
X0279954Y0149825D01*
X0279999Y0149771D01*
X0280041Y0149715D01*
X0280080Y0149657D01*
X0280116Y0149597D01*
X0280148Y0149534D01*
X0280177Y0149470D01*
X0280202Y0149405D01*
X0280223Y0149338D01*
X0280241Y0149270D01*
X0280254Y0149201D01*
X0280264Y0149132D01*
X0280270Y0149062D01*
X0280272Y0148992D01*
X0280270Y0148922D01*
X0280264Y0148852D01*
X0280254Y0148783D01*
X0280241Y0148714D01*
X0280223Y0148646D01*
X0280202Y0148579D01*
X0280177Y0148514D01*
X0280148Y0148450D01*
X0280116Y0148387D01*
X0280080Y0148327D01*
X0280041Y0148269D01*
X0279999Y0148213D01*
X0279954Y0148159D01*
X0279906Y0148108D01*
X0279855Y0148060D01*
X0279801Y0148015D01*
X0279745Y0147973D01*
X0279687Y0147934D01*
X0279627Y0147898D01*
X0279564Y0147866D01*
X0279500Y0147837D01*
X0279435Y0147812D01*
X0279368Y0147791D01*
X0279300Y0147773D01*
X0279231Y0147760D01*
X0279162Y0147750D01*
X0279092Y0147744D01*
X0279022Y0147742D01*
X0278952Y0147744D01*
X0278882Y0147750D01*
X0278813Y0147760D01*
X0278744Y0147773D01*
X0278676Y0147791D01*
X0278609Y0147812D01*
X0278544Y0147837D01*
X0278480Y0147866D01*
X0278417Y0147898D01*
X0278357Y0147934D01*
X0278299Y0147973D01*
X0278243Y0148015D01*
X0278189Y0148060D01*
X0278138Y0148108D01*
X0278090Y0148159D01*
X0278045Y0148213D01*
X0278003Y0148269D01*
X0277964Y0148327D01*
X0277928Y0148387D01*
X0277896Y0148450D01*
X0277867Y0148514D01*
X0277842Y0148579D01*
X0277821Y0148646D01*
X0277803Y0148714D01*
X0277790Y0148783D01*
X0277780Y0148852D01*
X0277774Y0148922D01*
X0277772Y0148992D01*
X0282772Y0192713D02*
X0255272Y0192713D01*
X0255272Y0232713D01*
X0282772Y0232713D01*
X0282772Y0192713D01*
X0257772Y0230213D02*
X0257774Y0230283D01*
X0257780Y0230353D01*
X0257790Y0230422D01*
X0257803Y0230491D01*
X0257821Y0230559D01*
X0257842Y0230626D01*
X0257867Y0230691D01*
X0257896Y0230755D01*
X0257928Y0230818D01*
X0257964Y0230878D01*
X0258003Y0230936D01*
X0258045Y0230992D01*
X0258090Y0231046D01*
X0258138Y0231097D01*
X0258189Y0231145D01*
X0258243Y0231190D01*
X0258299Y0231232D01*
X0258357Y0231271D01*
X0258417Y0231307D01*
X0258480Y0231339D01*
X0258544Y0231368D01*
X0258609Y0231393D01*
X0258676Y0231414D01*
X0258744Y0231432D01*
X0258813Y0231445D01*
X0258882Y0231455D01*
X0258952Y0231461D01*
X0259022Y0231463D01*
X0259092Y0231461D01*
X0259162Y0231455D01*
X0259231Y0231445D01*
X0259300Y0231432D01*
X0259368Y0231414D01*
X0259435Y0231393D01*
X0259500Y0231368D01*
X0259564Y0231339D01*
X0259627Y0231307D01*
X0259687Y0231271D01*
X0259745Y0231232D01*
X0259801Y0231190D01*
X0259855Y0231145D01*
X0259906Y0231097D01*
X0259954Y0231046D01*
X0259999Y0230992D01*
X0260041Y0230936D01*
X0260080Y0230878D01*
X0260116Y0230818D01*
X0260148Y0230755D01*
X0260177Y0230691D01*
X0260202Y0230626D01*
X0260223Y0230559D01*
X0260241Y0230491D01*
X0260254Y0230422D01*
X0260264Y0230353D01*
X0260270Y0230283D01*
X0260272Y0230213D01*
X0260270Y0230143D01*
X0260264Y0230073D01*
X0260254Y0230004D01*
X0260241Y0229935D01*
X0260223Y0229867D01*
X0260202Y0229800D01*
X0260177Y0229735D01*
X0260148Y0229671D01*
X0260116Y0229608D01*
X0260080Y0229548D01*
X0260041Y0229490D01*
X0259999Y0229434D01*
X0259954Y0229380D01*
X0259906Y0229329D01*
X0259855Y0229281D01*
X0259801Y0229236D01*
X0259745Y0229194D01*
X0259687Y0229155D01*
X0259627Y0229119D01*
X0259564Y0229087D01*
X0259500Y0229058D01*
X0259435Y0229033D01*
X0259368Y0229012D01*
X0259300Y0228994D01*
X0259231Y0228981D01*
X0259162Y0228971D01*
X0259092Y0228965D01*
X0259022Y0228963D01*
X0258952Y0228965D01*
X0258882Y0228971D01*
X0258813Y0228981D01*
X0258744Y0228994D01*
X0258676Y0229012D01*
X0258609Y0229033D01*
X0258544Y0229058D01*
X0258480Y0229087D01*
X0258417Y0229119D01*
X0258357Y0229155D01*
X0258299Y0229194D01*
X0258243Y0229236D01*
X0258189Y0229281D01*
X0258138Y0229329D01*
X0258090Y0229380D01*
X0258045Y0229434D01*
X0258003Y0229490D01*
X0257964Y0229548D01*
X0257928Y0229608D01*
X0257896Y0229671D01*
X0257867Y0229735D01*
X0257842Y0229800D01*
X0257821Y0229867D01*
X0257803Y0229935D01*
X0257790Y0230004D01*
X0257780Y0230073D01*
X0257774Y0230143D01*
X0257772Y0230213D01*
X0251670Y0267555D02*
X0251670Y0347555D01*
X0381670Y0347555D01*
X0381670Y0267555D01*
X0251670Y0267555D01*
X0202831Y0212043D02*
X0202831Y0192850D01*
X0169564Y0192850D01*
X0169564Y0212043D01*
X0202831Y0212043D01*
X0198992Y0208205D02*
X0198994Y0208276D01*
X0199000Y0208347D01*
X0199010Y0208418D01*
X0199024Y0208487D01*
X0199041Y0208556D01*
X0199063Y0208624D01*
X0199088Y0208691D01*
X0199117Y0208756D01*
X0199149Y0208819D01*
X0199185Y0208881D01*
X0199224Y0208940D01*
X0199267Y0208997D01*
X0199312Y0209052D01*
X0199361Y0209104D01*
X0199412Y0209153D01*
X0199466Y0209199D01*
X0199523Y0209243D01*
X0199581Y0209283D01*
X0199642Y0209319D01*
X0199705Y0209353D01*
X0199770Y0209382D01*
X0199836Y0209408D01*
X0199904Y0209431D01*
X0199972Y0209449D01*
X0200042Y0209464D01*
X0200112Y0209475D01*
X0200183Y0209482D01*
X0200254Y0209485D01*
X0200325Y0209484D01*
X0200396Y0209479D01*
X0200467Y0209470D01*
X0200537Y0209457D01*
X0200606Y0209441D01*
X0200674Y0209420D01*
X0200741Y0209396D01*
X0200807Y0209368D01*
X0200870Y0209336D01*
X0200932Y0209301D01*
X0200992Y0209263D01*
X0201050Y0209221D01*
X0201105Y0209177D01*
X0201158Y0209129D01*
X0201208Y0209078D01*
X0201255Y0209025D01*
X0201299Y0208969D01*
X0201340Y0208911D01*
X0201378Y0208850D01*
X0201412Y0208788D01*
X0201442Y0208723D01*
X0201469Y0208658D01*
X0201493Y0208590D01*
X0201512Y0208522D01*
X0201528Y0208453D01*
X0201540Y0208382D01*
X0201548Y0208312D01*
X0201552Y0208241D01*
X0201552Y0208169D01*
X0201548Y0208098D01*
X0201540Y0208028D01*
X0201528Y0207957D01*
X0201512Y0207888D01*
X0201493Y0207820D01*
X0201469Y0207752D01*
X0201442Y0207687D01*
X0201412Y0207622D01*
X0201378Y0207560D01*
X0201340Y0207499D01*
X0201299Y0207441D01*
X0201255Y0207385D01*
X0201208Y0207332D01*
X0201158Y0207281D01*
X0201105Y0207233D01*
X0201050Y0207189D01*
X0200992Y0207147D01*
X0200932Y0207109D01*
X0200870Y0207074D01*
X0200807Y0207042D01*
X0200741Y0207014D01*
X0200674Y0206990D01*
X0200606Y0206969D01*
X0200537Y0206953D01*
X0200467Y0206940D01*
X0200396Y0206931D01*
X0200325Y0206926D01*
X0200254Y0206925D01*
X0200183Y0206928D01*
X0200112Y0206935D01*
X0200042Y0206946D01*
X0199972Y0206961D01*
X0199904Y0206979D01*
X0199836Y0207002D01*
X0199770Y0207028D01*
X0199705Y0207057D01*
X0199642Y0207091D01*
X0199581Y0207127D01*
X0199523Y0207167D01*
X0199466Y0207211D01*
X0199412Y0207257D01*
X0199361Y0207306D01*
X0199312Y0207358D01*
X0199267Y0207413D01*
X0199224Y0207470D01*
X0199185Y0207529D01*
X0199149Y0207591D01*
X0199117Y0207654D01*
X0199088Y0207719D01*
X0199063Y0207786D01*
X0199041Y0207854D01*
X0199024Y0207923D01*
X0199010Y0207992D01*
X0199000Y0208063D01*
X0198994Y0208134D01*
X0198992Y0208205D01*
X0349021Y0079155D02*
X0351273Y0079155D01*
X0352023Y0078405D01*
X0352023Y0077654D01*
X0351273Y0076904D01*
X0349771Y0076904D01*
X0349021Y0077654D01*
X0349021Y0079155D01*
X0350522Y0080657D01*
X0352023Y0081407D01*
X0399021Y0079906D02*
X0400522Y0081407D01*
X0400522Y0076904D01*
X0399021Y0076904D02*
X0402023Y0076904D01*
D17*
X0229690Y0176594D02*
X0229690Y0203594D01*
X0226690Y0203594D02*
X0226690Y0176594D01*
X0217190Y0169980D02*
X0217031Y0170092D01*
X0216874Y0170207D01*
X0216720Y0170326D01*
X0216569Y0170449D01*
X0216421Y0170575D01*
X0216276Y0170705D01*
X0216134Y0170839D01*
X0215996Y0170976D01*
X0215861Y0171116D01*
X0215729Y0171259D01*
X0215601Y0171406D01*
X0215477Y0171556D01*
X0215356Y0171708D01*
X0215239Y0171864D01*
X0215126Y0172022D01*
X0215016Y0172183D01*
X0214911Y0172347D01*
X0214810Y0172513D01*
X0214712Y0172682D01*
X0214619Y0172853D01*
X0214530Y0173026D01*
X0214445Y0173201D01*
X0214365Y0173379D01*
X0214289Y0173558D01*
X0214217Y0173739D01*
X0214150Y0173921D01*
X0214087Y0174106D01*
X0214029Y0174291D01*
X0213975Y0174479D01*
X0213926Y0174667D01*
X0213881Y0174856D01*
X0213841Y0175047D01*
X0213806Y0175238D01*
X0213775Y0175431D01*
X0213749Y0175624D01*
X0213728Y0175817D01*
X0213711Y0176011D01*
X0213699Y0176205D01*
X0213692Y0176400D01*
X0213690Y0176595D01*
X0213690Y0176594D02*
X0213690Y0203594D01*
X0216690Y0203594D02*
X0216690Y0176594D01*
X0216692Y0176461D01*
X0216697Y0176329D01*
X0216706Y0176197D01*
X0216718Y0176064D01*
X0216734Y0175933D01*
X0216753Y0175801D01*
X0216776Y0175671D01*
X0216802Y0175541D01*
X0216832Y0175411D01*
X0216865Y0175283D01*
X0216901Y0175155D01*
X0216941Y0175029D01*
X0216984Y0174903D01*
X0217031Y0174779D01*
X0217081Y0174656D01*
X0217134Y0174535D01*
X0217190Y0174415D01*
X0226190Y0169980D02*
X0226350Y0170091D01*
X0226506Y0170206D01*
X0226660Y0170325D01*
X0226812Y0170448D01*
X0226960Y0170575D01*
X0227104Y0170705D01*
X0227246Y0170838D01*
X0227385Y0170975D01*
X0227520Y0171115D01*
X0227651Y0171259D01*
X0227779Y0171405D01*
X0227904Y0171555D01*
X0228024Y0171708D01*
X0228141Y0171863D01*
X0228255Y0172022D01*
X0228364Y0172183D01*
X0228469Y0172347D01*
X0228571Y0172513D01*
X0228668Y0172681D01*
X0228761Y0172852D01*
X0228850Y0173026D01*
X0228935Y0173201D01*
X0229015Y0173378D01*
X0229091Y0173557D01*
X0229163Y0173738D01*
X0229230Y0173921D01*
X0229293Y0174105D01*
X0229351Y0174291D01*
X0229405Y0174478D01*
X0229454Y0174667D01*
X0229499Y0174856D01*
X0229539Y0175047D01*
X0229574Y0175238D01*
X0229605Y0175430D01*
X0229631Y0175623D01*
X0229652Y0175817D01*
X0229669Y0176011D01*
X0229681Y0176205D01*
X0229688Y0176400D01*
X0229690Y0176594D01*
X0226690Y0176594D02*
X0226688Y0176461D01*
X0226683Y0176329D01*
X0226674Y0176197D01*
X0226662Y0176064D01*
X0226646Y0175933D01*
X0226627Y0175801D01*
X0226604Y0175671D01*
X0226578Y0175541D01*
X0226548Y0175411D01*
X0226515Y0175283D01*
X0226479Y0175155D01*
X0226439Y0175029D01*
X0226396Y0174903D01*
X0226349Y0174779D01*
X0226299Y0174656D01*
X0226246Y0174535D01*
X0226190Y0174415D01*
X0221690Y0186094D02*
X0221690Y0187594D01*
X0221690Y0192594D02*
X0221690Y0194094D01*
X0229690Y0203594D02*
X0229688Y0203789D01*
X0229681Y0203983D01*
X0229669Y0204178D01*
X0229652Y0204372D01*
X0229631Y0204565D01*
X0229605Y0204758D01*
X0229574Y0204950D01*
X0229539Y0205142D01*
X0229499Y0205332D01*
X0229454Y0205522D01*
X0229405Y0205710D01*
X0229351Y0205897D01*
X0229293Y0206083D01*
X0229230Y0206267D01*
X0229163Y0206450D01*
X0229091Y0206631D01*
X0229015Y0206810D01*
X0228935Y0206987D01*
X0228850Y0207163D01*
X0228761Y0207336D01*
X0228668Y0207507D01*
X0228571Y0207675D01*
X0228469Y0207842D01*
X0228364Y0208005D01*
X0228254Y0208166D01*
X0228141Y0208325D01*
X0228024Y0208480D01*
X0227903Y0208633D01*
X0227779Y0208783D01*
X0227651Y0208929D01*
X0227519Y0209073D01*
X0227384Y0209213D01*
X0227246Y0209350D01*
X0227104Y0209483D01*
X0226959Y0209613D01*
X0226811Y0209740D01*
X0226660Y0209863D01*
X0226506Y0209982D01*
X0226349Y0210097D01*
X0226190Y0210209D01*
X0217190Y0210209D02*
X0217030Y0210098D01*
X0216874Y0209983D01*
X0216720Y0209864D01*
X0216568Y0209741D01*
X0216420Y0209614D01*
X0216276Y0209484D01*
X0216134Y0209351D01*
X0215995Y0209214D01*
X0215860Y0209074D01*
X0215729Y0208930D01*
X0215601Y0208784D01*
X0215476Y0208634D01*
X0215356Y0208481D01*
X0215239Y0208326D01*
X0215125Y0208167D01*
X0215016Y0208006D01*
X0214911Y0207842D01*
X0214809Y0207676D01*
X0214712Y0207508D01*
X0214619Y0207337D01*
X0214530Y0207163D01*
X0214445Y0206988D01*
X0214365Y0206811D01*
X0214289Y0206632D01*
X0214217Y0206451D01*
X0214150Y0206268D01*
X0214087Y0206084D01*
X0214029Y0205898D01*
X0213975Y0205711D01*
X0213926Y0205522D01*
X0213881Y0205333D01*
X0213841Y0205142D01*
X0213806Y0204951D01*
X0213775Y0204759D01*
X0213749Y0204566D01*
X0213728Y0204372D01*
X0213711Y0204178D01*
X0213699Y0203984D01*
X0213692Y0203789D01*
X0213690Y0203595D01*
X0216690Y0203595D02*
X0216692Y0203728D01*
X0216697Y0203860D01*
X0216706Y0203992D01*
X0216718Y0204125D01*
X0216734Y0204256D01*
X0216753Y0204388D01*
X0216776Y0204518D01*
X0216802Y0204648D01*
X0216832Y0204778D01*
X0216865Y0204906D01*
X0216901Y0205034D01*
X0216941Y0205160D01*
X0216984Y0205286D01*
X0217031Y0205410D01*
X0217081Y0205533D01*
X0217134Y0205654D01*
X0217190Y0205774D01*
X0226190Y0205774D02*
X0226246Y0205654D01*
X0226299Y0205533D01*
X0226349Y0205410D01*
X0226396Y0205286D01*
X0226439Y0205160D01*
X0226479Y0205034D01*
X0226515Y0204906D01*
X0226548Y0204778D01*
X0226578Y0204648D01*
X0226604Y0204518D01*
X0226627Y0204388D01*
X0226646Y0204256D01*
X0226662Y0204125D01*
X0226674Y0203992D01*
X0226683Y0203860D01*
X0226688Y0203728D01*
X0226690Y0203595D01*
X0205131Y0205881D02*
X0205131Y0206615D01*
X0204764Y0206982D01*
X0202929Y0206982D01*
X0203296Y0207724D02*
X0202929Y0208091D01*
X0202929Y0208824D01*
X0203296Y0209191D01*
X0204030Y0208824D02*
X0204030Y0208091D01*
X0203663Y0207724D01*
X0203296Y0207724D01*
X0202562Y0208457D02*
X0205498Y0208457D01*
X0205131Y0208091D02*
X0205131Y0208824D01*
X0204764Y0209191D01*
X0204397Y0209191D01*
X0204030Y0208824D01*
X0203663Y0209933D02*
X0202929Y0210667D01*
X0205131Y0210667D01*
X0205131Y0209933D02*
X0205131Y0211401D01*
X0205131Y0208091D02*
X0204764Y0207724D01*
X0205131Y0205881D02*
X0204764Y0205514D01*
X0202929Y0205514D01*
X0173242Y0206122D02*
X0172875Y0205755D01*
X0171407Y0207223D01*
X0172875Y0207223D01*
X0173242Y0206856D01*
X0173242Y0206122D01*
X0172875Y0205755D02*
X0171407Y0205755D01*
X0171040Y0206122D01*
X0171040Y0206856D01*
X0171407Y0207223D01*
X0171774Y0207965D02*
X0171040Y0208699D01*
X0171774Y0209433D01*
X0173242Y0209433D01*
X0172141Y0209433D02*
X0172141Y0207965D01*
X0171774Y0207965D02*
X0173242Y0207965D01*
X0172875Y0205013D02*
X0172508Y0205013D01*
X0172141Y0204646D01*
X0172141Y0203545D01*
X0172875Y0203545D01*
X0173242Y0203912D01*
X0173242Y0204646D01*
X0172875Y0205013D01*
X0171407Y0204279D02*
X0172141Y0203545D01*
X0172141Y0202803D02*
X0172141Y0201335D01*
X0171040Y0202436D01*
X0173242Y0202436D01*
X0172875Y0200593D02*
X0173242Y0200226D01*
X0173242Y0199492D01*
X0172875Y0199125D01*
X0172141Y0199125D02*
X0171774Y0199859D01*
X0171774Y0200226D01*
X0172141Y0200593D01*
X0172875Y0200593D01*
X0172141Y0199125D02*
X0171040Y0199125D01*
X0171040Y0200593D01*
X0171407Y0198383D02*
X0171040Y0198016D01*
X0171040Y0197282D01*
X0171407Y0196915D01*
X0171774Y0196915D01*
X0172141Y0197282D01*
X0172141Y0198016D01*
X0172508Y0198383D01*
X0172875Y0198383D01*
X0173242Y0198016D01*
X0173242Y0197282D01*
X0172875Y0196915D01*
X0172875Y0196173D02*
X0173242Y0195807D01*
X0173242Y0195073D01*
X0172875Y0194706D01*
X0171407Y0194706D01*
X0171040Y0195073D01*
X0171040Y0195807D01*
X0171407Y0196173D01*
X0171407Y0204279D02*
X0171040Y0205013D01*
X0191808Y0128354D02*
X0219308Y0128354D01*
X0201808Y0126854D02*
X0191808Y0126854D01*
X0191808Y0115854D02*
X0181808Y0115854D01*
X0191808Y0114354D02*
X0164308Y0114354D01*
D18*
X0212666Y0254012D02*
X0218666Y0254012D01*
D19*
X0194040Y0060529D02*
X0194040Y0056659D01*
X0193556Y0057143D02*
X0194524Y0057143D01*
X0195008Y0057627D01*
X0195008Y0058110D01*
X0194524Y0058594D01*
X0193556Y0058594D01*
X0193073Y0059078D01*
X0193073Y0059562D01*
X0193556Y0060045D01*
X0194524Y0060045D01*
X0195008Y0059562D01*
X0196019Y0058594D02*
X0197470Y0058594D01*
X0197954Y0058110D01*
X0197954Y0057627D01*
X0197470Y0057143D01*
X0196503Y0057143D01*
X0196019Y0057627D01*
X0196019Y0058594D01*
X0196987Y0059562D01*
X0197954Y0060045D01*
X0193556Y0057143D02*
X0193073Y0057627D01*
X0192061Y0057627D02*
X0192061Y0060045D01*
X0190126Y0060045D02*
X0190126Y0057627D01*
X0190610Y0057143D01*
X0191577Y0057143D01*
X0192061Y0057627D01*
X0180238Y0057143D02*
X0178303Y0057143D01*
X0179270Y0057143D02*
X0179270Y0060045D01*
X0178303Y0059078D01*
X0177291Y0060045D02*
X0176324Y0059562D01*
X0175356Y0058594D01*
X0176807Y0058594D01*
X0177291Y0058110D01*
X0177291Y0057627D01*
X0176807Y0057143D01*
X0175840Y0057143D01*
X0175356Y0057627D01*
X0175356Y0058594D01*
X0174345Y0058594D02*
X0172410Y0058594D01*
X0171398Y0057627D02*
X0170914Y0057143D01*
X0169947Y0057143D01*
X0169463Y0057627D01*
X0171398Y0059562D01*
X0171398Y0057627D01*
X0171398Y0059562D02*
X0170914Y0060045D01*
X0169947Y0060045D01*
X0169463Y0059562D01*
X0169463Y0057627D01*
X0168451Y0058594D02*
X0166516Y0058594D01*
X0167968Y0060045D01*
X0167968Y0057143D01*
X0165505Y0057143D02*
X0164537Y0058110D01*
X0165021Y0058110D02*
X0163570Y0058110D01*
X0163570Y0057143D02*
X0163570Y0060045D01*
X0165021Y0060045D01*
X0165505Y0059562D01*
X0165505Y0058594D01*
X0165021Y0058110D01*
X0162558Y0057143D02*
X0160623Y0057143D01*
X0160623Y0060045D01*
X0162558Y0060045D01*
X0161591Y0058594D02*
X0160623Y0058594D01*
X0159612Y0057627D02*
X0159612Y0059562D01*
X0159128Y0060045D01*
X0157677Y0060045D01*
X0157677Y0057143D01*
X0159128Y0057143D01*
X0159612Y0057627D01*
X0156665Y0057143D02*
X0156665Y0060045D01*
X0154730Y0060045D02*
X0156665Y0057143D01*
X0154730Y0057143D02*
X0154730Y0060045D01*
X0153734Y0060045D02*
X0152766Y0060045D01*
X0153250Y0060045D02*
X0153250Y0057143D01*
X0152766Y0057143D02*
X0153734Y0057143D01*
X0150787Y0058594D02*
X0149820Y0058594D01*
X0149820Y0057143D02*
X0149820Y0060045D01*
X0151755Y0060045D01*
M02*
